<mxfile host="app.diagrams.net" modified="2024-07-19T12:28:57.506Z" agent="Mozilla/5.0 (Windows NT 10.0; Win64; x64) AppleWebKit/537.36 (KHTML, like Gecko) Chrome/126.0.0.0 Safari/537.36 Edg/126.0.0.0" etag="89tkiobCAhI9x8VYvG16" version="24.7.1" type="github">
  <diagram id="C5RBs43oDa-KdzZeNtuy" name="Page-1">
    <mxGraphModel dx="1207" dy="450" grid="1" gridSize="10" guides="1" tooltips="1" connect="1" arrows="1" fold="1" page="1" pageScale="1" pageWidth="827" pageHeight="1169" math="0" shadow="0">
      <root>
        <mxCell id="WIyWlLk6GJQsqaUBKTNV-0" />
        <mxCell id="WIyWlLk6GJQsqaUBKTNV-1" parent="WIyWlLk6GJQsqaUBKTNV-0" />
        <mxCell id="VkJfk4KHNgsWcJ2oYwpS-0" value="PERMISSION BASED SECURTIY IMPLEMENTATION" style="rounded=0;whiteSpace=wrap;html=1;" parent="WIyWlLk6GJQsqaUBKTNV-1" vertex="1">
          <mxGeometry x="591" y="30" width="450" height="60" as="geometry" />
        </mxCell>
        <mxCell id="VkJfk4KHNgsWcJ2oYwpS-2" value="" style="shape=image;verticalLabelPosition=bottom;labelBackgroundColor=default;verticalAlign=top;aspect=fixed;imageAspect=0;image=data:image/png,iVBORw0KGgoAAAANSUhEUgAAAR8AAAFCCAYAAADIR9lkAAAAAXNSR0IArs4c6QAAAARnQU1BAACxjwv8YQUAAAAJcEhZcwAADsMAAA7DAcdvqGQAADCwSURBVHhe7Z0HlBTV1rbPkAWHoKCCCIIIildBUEH4UBAFQcSEEUUExss1XiNmDKAIKGZF0AujLFTMGBADKiYMKBjGACJhFBRMiESd/3/2VEFP0xO7e073+D5r1Zqe6tPVVdV13rPDqdoZmZmZeU4IIcqZSsFfIYQoVyQ+QggvSHyEEF6Q+AghvCDxEUJ4QeIjhPCCxEcI4QWJjxDCCxIfIYQXJD5CCC9IfIQQXkiY+Lz//vtu5cqV7sorrwzWCCEqOvH0e1k+QggvSHyEEF6Q+Agh/MDzfMqy5OTk5BXH+vXr80aNGrX5M5MnTw7eKUhubm5enz59Cmyf/1kfC7YT2ZYlKysrb/Xq1UGLLUTvQ7jMmjUraFEQjiu6bSptO5nnMF23rd++/H6fsvT7whZZPkIILyTsSYZEvZs3b+7GjRvnRo4cGawVQlRk4un3snyEEF6Q+AghvCDxEUJ4QdUrhBBekOUjhPCCxEcI4QWJjxDCCxIfIYQXJD5CCC9IfIQQXpD4CCG8IPERQnhB4iOE8ILERwjhBYmPEMILEh8hhBckPkIIL0h8hBBekPgIIbwg8RFCeEHiI4TwgsRHCOEFiY8Qwgtxi8+zzz7rvv/+e3fSSScFa4QQFZ1E9HtZPkIIL0h8hBBekPhUQDCJf//9983LypUr3ZVXXhm8K0RqIPERQnhB4lMB6du3r6tdu7Ytr7/+erBWiNRC4iOE8EJKic/BBx/svvzyS1t4Hcldd91l8Qv+RrLHHnu4yZMnuyVLlrjffvvNlkWLFrk777zTbbvttkGrLQwYMMC9++677ueff7bt/fjjj+6ZZ55x+++/f9BiC++//76lE/v37+/GjBnjFi9ebNsnhvL000/bd5eV0m67e/fu7tVXX7X9Zb9/+eUX99VXX7kLLrggaFF2dt55ZzdhwoQC5zBR2xaiMNLa8kFcxo8f74455hhXt25dl5GRYcv222/vjjvuONenT5+gZT4XX3yxGzVqlNtrr71clSpVbF2NGjVct27dTMCiBQ/Y3plnnmlLvXr17P9q1arZZ6677rqgVdko6bYHDx7sJk2aZALJ/kLlypVdw4YN3TXXXGPnoKy0aNHCZWdnuxNOOKHAOQy3fffddwcthUgsaS0+vXr1crvttptbtWqVjdLEOPbcc093/fXXu4ULF7q//voraOms455++ulum222cS+//LI74ogjrP15553nFixYYKM/70dTq1Yt17ZtW/fdd9+5iy66yDVq1Mg99thj7u+//zYRa9euXdCy9JRk24jDkCFDXJ06ddzXX39tQsR+I67vvfeeq1SpkuvZs6c78sgjg62WjqFDh9r3YFENHz7c9uGAAw5wjz76qNu4caNt+7DDDgtaC5E40lp8fv31V7du3TqXmZnpOnfubAKSm5vrxo4d67p06eKmTZsWtHT2/g477OA+++wzE5nZs2fbeiyK++67z61du9aEKxqEYNasWa53797mmvzxxx/upZdecmvWrDHrie8uKyXZ9iGHHOKaNWvmfvrpJ7OGwmNCQBHOb7/91sSoY8eOtr60dOjQwUSGczBu3DjbB9zerKwsN2/ePBO99u3bB62FSBxpLT50QMQDC6dfv37u008/dR999JG74YYbTIgioQPjsrRp08ZiLeEcGBbEqmbNmuZ2dOrUKfhEPps2bXIffPCBiVoIAtC4cWOLy7zxxhvB2tJTkm03aNDAhIh9nj59etAqH0Ri6dKl9j4iUVo41vr169t5weqJPCcsCBNuIC6YEIkmrcUHRowYYbGdRx55xC1fvtw1b97cnX/++e6dd94xFyWEGAmxjHQFCy/RVK1aNa3PiUhvUlJ8CCTjIoXgQjEKFwbWA0Hb1q1bux49elg2Cytm4MCBQQvnfvjhB7dhwwY3Z84cc1NiLbhdiFYqgQuGZYflFh17wTraZZdd7Lg4vtKCZYWF8+eff1owPtY5waJCzIVINCklPqtXrzZXBPE59thjzXUi9kDGpVWrVkGrLVx22WXmZt14442bA7+4J8QqiGNUr17d1gGpbWJExC9wbY466qjgndTm7bfftvQ77tfIkSPd8ccfb+sJME+cONEsvRUrVriZM2fa+tJCDIwgPAHvYcOGxTV9QIjSkFLiM3fuXPf555+bK0A2Kicnx91yyy2uadOmNi8HYYoEV4r3zjnnHJvJyyjOZ8jg8B4WUQjxoRkzZthrMjgPPfRQgfgGS/QcolSAYyDztH79ehOGBx54wPZ1ypQpbp999jF3bOrUqZuPlUccRMa0unbtanEbhCXWcTLFgLgRcR3u/0Kkw3YsseZcCZEIUs7tIvCJ64MrAbgdTzzxhHvwwQctOxQJwWY6HrGeMK2OQDFhj3T72WefbetCECmC0bwfLWSpDMfCErnf/EWoL7nkEot7lRVcrzPOOMMsJyzPvLy84B0hkktGZmZmXFcbd1Dvt99+7sILL7SgrxCi4pOIfp/22S4hRHoi8YkT4iQEhCPjJEUtqRhXEsIHEh8hhBfijvkIIURZkOUjhPCCxEcI4QWJjxDCCxIfIYQXJD5CCC9IfIQQXpD4CCG8IPERQnhB4iOE8ILERwjhBYmPEMILEh8hhBckPkIIL0h8hBBekPgIIbwg8RFCeEHiI4TwgsRHCOEFiY8QwgsSHyGEF+IWH8rrUjqGEjJCiH8Giej3snyEEF6Q+AghvCDxEUL4gaKBpVlycnLyimP9+vV5o0aN2vyZyZMnB+8UJDc3N69Pnz4Fts//rI8F24lsy5LMbWdlZeWtXr06aLGF6OMLl1mzZgUtCsI5i26bSttO198nmdvWb1/wHJal3xe3yPIRQngh7nLJRL2bN2/uxo0b50aOHBmsFUJUZBLR72X5CCG8IPERQnhB4iOE8ELcMR8hhCgLsnyEEF6Q+AghvCDxEUJ4QeIjhPCCxEcI4QWJjxDCCxIfIYQXJD5CCC9IfIQQXpD4CCG8IPERQnhB4iOE8ILERwjhBYmPEMILEh8hhBckPkIIL0h8hBBekPgIIbwg8RFCeCFu8Xn22Wfd999/70466aRgjRCiopOIfi/LRwjhBYmPZ0477TT33XffuRUrVrirrroqWOuXPfbYw73xxhtu8uTJbttttw3WiqIYPHiwmzdvnvvvf/8brBHFIfHxTIcOHdx2223nttlmG3fAAQcEa0vGlVde6VauXGmlaxMFwnPvvfe6Nm3auDp16gRrRXHssMMOrkGDBu6iiy4yIRLFI/HxzJw5c9zPP//s1q5dm1ARKSuXXXaZ23fffc3yOfXUU90ff/wRvOPcwQcf7L788kv3+++/F1iw2t599103YMCAoGU+d911l73P30jonEuXLnU//viju+aaa4K1ySXcl1gLAo6QhxDHIJ4R/XsgzO+884777bff3DPPPFPAKrzpppvcfffd56pXr+4uvvhid9hhhwXviMKQ+HjmoYcecrvuuqvbcccd3YgRI4K1frjwwgtdr1693A8//GCdNVJ4igKrba+99nJjx44tVkwQMKwDOu5TTz3lrr/++uCd1GfUqFF2nJ9//rkbNmzYVueHY5k1a5Zr1KiRO/fcc4O1ojAkPsJADI455hhXpUoVE4WXX345eGdrsAqOPPJIV7t2bbfnnnu6K664wuJWNWrUcKeccooJTCz4DgSOzvnmm2+aCJU32dnZtt+RS/369d3IkSODFrFBVDt16mTHPnz4cLMAY3HPPfeYeONCDx06NFgrYpFS4hOa9SzRF3BhJjymMIHRJUuWmDnMsmjRInfnnXfGDJbiGuAi4OqwPUx/TOj9998/aLEFzG4utv79+7sxY8a4xYsX2/Yx059++mn77rJCqrIo0z8a9u/xxx93ubm5tg985oILLnBVq1YNWsTHkCFDXMuWLU1EHnzwwWBt8bA//CacnzVr1lhnbtiwYfBuQW655RZ30EEHuS+++CKm5ZCq4CZmZWW59evXm3VXlDDjruKaYQ0effTRwVoRi7S2fBCX8ePH24hdt25dl5GRYcv222/vjjvuONenT5+gZT744qHpzAgPjNbdunUzAYs1YrO9M88805Z69erZ/9WqVbPPXHfddUGr5EL8YNKkSa5Hjx4uMzPT9gHYj/B1vHTs2NE6zPz5892CBQuCtSWHz7Ivf//9t/vrr7+CtVugA/fu3dstX768SMsh1WCAYd+J5UyYMME98MADwTuF8+qrr5qw4k4XZgWKNBcf4hO77babW7VqlVkBjLq4AfjeCxcuLNAJsBxOP/106ySMXEcccYS1P++886yz7bzzzvZ+NLVq1XJt27Y1iwA3AZfhscces06GiLVr1y5oWTr69u272ex//fXXg7WxQfh22WUXszIuvfRS2weO8/7773cbNmwIWsVH06ZNbWT/6quvgjUlg/OGqHMea9asaVbniy++GLybD4JJGyjOckg2WL6RFidLLEsbENObb77ZBKg08SmSCD/99JMNiK1atQrWimjSWnx+/fVXt27dOru4O3fubB2BDsoF3qVLFzdt2rSgpbP3SYd+9tlnJjKzZ8+29VgUZCnINtGho0FkCCIyajPyMaK99NJL5mJgPfHdyYROsffee9v33Xrrrbav7APH+csvvwSt4oNYBh1l48aNJrLFgfhNnz7dOm5OTo7FQ5o0aWIdDkGMdqe6du1qvw3nvCSWQ6rQuHFju24418RySgqD2erVq+36IP0uYpPW4sMIinhg4fTr1899+umn7qOPPnI33HCDXeyRNGvWzFws5q8Qx4kc+RArRm06IB0xkk2bNrkPPvjALsAQRI0LkxERHz+ZED/BOkJoybIkA+JGZXXf8vLyTASxDEhRk72LBsuOIOyhhx5abqn1wsiOEXAu7HdctmyZxQcRVqyeWDHEwkjUwFCRSWvxAdLTxHYeeeQRiyc0b97cnX/++Rb0i5zsVbly5YTFR3yAwGLlpQKR2S4mIuKyYU0i0rHACpgyZYq9JnAb+bukMgjrHXfcYcdLoJyAeUnBvRdFk5LiwwiDixSCC8VM4MLgoicu0rp1awvKMlphxQwcODBo4WzkJT6CPx498oULbheilUoQh8Ed4mJmLlAI54h0biKyXYz6WIBsiyBpMsBywDpiv9NpEh7WNZYxriSJjZJYbi1atDB3i9+NLKyITUqJDyMkbg4X6LHHHmuuEyPl3XffHTNwx2xc3Kwbb7xxc+CXUYp7bPjhyVCEkDbHdWnfvr25TUcddVTwTmqDK0kanrko3DdE4ByrY8aMGRZLSZQ19+2339r5SmaAlIA983uIGZEpxN2JBZYR0xo4bm718A1xKuJ9UBLLjRni3DLDlAiJT+GklPjMnTvX4hp0KLJRBDMxdTHrmZeDMEWCK8V755xzjsUVwgAok7t4L9INYASjw0LPnj0tNhEZ92GJnkOULMLp++H3IiKkzZn7Er0vBC8JeBP4PvDAAy2NiwtDEJpbFAiUJwLOFW4d1lSsOU+JAOuBY0ToyBSSSYoVR8ECxZ3jnBDox+LwDZbbCy+8YBZycZYbcUPaMXAkOyaYzqSc28UcEFyfMIVMlueJJ56wiW90wEgINk+dOtViPWFaHYFi1ORiOfvss21dCCJFMJr3o4Uslbn22mvdww8/bOcCwnNC5401p6YsMNGS6Qk77bRTUjs7ae1wwmhhcZSJEyduTvnjbjKdIhVgjhiDIxZ5YZYb2UmmgDAozJw5M1grYpGRmZmZF7wuE8zU3W+//WzaPEFfkb7wG2KZ4J4i1D7n4zClgFs1ECnmcEVOm0hlHn30UbOsscQr8gznRPT7tM92icTBPCKC9Vg/RcVkkglWxeWXX24dGLDGoictpioEo5n5jks9bty4YK0oDIlPnITP1AljNcUt5RVXKisE8XEtiorJJAtiYcSeEB9ukWHSIi5Y9KTFVIRkABlXspO4kor1FI/ERxSAmMygQYPcJ598YjfdljfMrSHrSbyksEmLqQj7TFKEu+PTaRa3T+KO+QghRFmQ5SOE8ILERwjhBYmPEMILEh8hhBckPkIIL0h8hBBekPgIIbwg8RFCeEHiI4TwgsRHCOEFiY8QwgsSHyGEFyQ+QggvSHyEEF6IW3x4nCJPbuPZK0KIfwaJ6PeyfIQQXpD4eOa0006z+ugrVqxwV111VbDWL2H54MmTJ5frY1TTGWp5US+Ox6mKkvGPEp+wZEsqPVOZSqwUmKNEDDWzSkP4/GgKIiYKhIdCfdS0p3aWKBlU2KVKKYUR06UctG9k+XiG8s08+5c6T4kUkbLCA+SpuInlc+qppxZ4eDs1qXjGc7SAY7VR9WLAgAFBy3xCsY8WeDonBQ95RnRJyg8nglgDT7gg4Ah5SFjUMfr3QJipKUclUuqcRVqFN910k5X7oeprOpWD9sk/SnyoRRXWZc/Ozg7W+oUHpFMfnTrsI0aMCNb6gRpMFLyjrj2dtaRVI7DaqHZBTfPixAQBwzqg41K7neKO6QJFAzlOqntQ3yz6/HAsVJelHPS5554brBWFIctHGIgBlUqrVKliolBUwUCsAurFI+KUNr7iiissblWjRg0r9IfAxILvQODonNRsR4TKGwadcAAKF+rgU3WiKBBVyiBz7FTVxQKMxT333GPijQtN2W5ROCknPqTwQjOYSpWUzcXM/eWXX8wV6NKlS9AyH+qKP/744/aDY0LTdtGiRW7MmDEJCZayD5999pl9P9vneyjdTHG7eOA4izL9owmPMzc3146Rz7BvVatWDVrEx5AhQ1zLli1NRDi+ksL+YCVxvinjTGdu2LBh8G5BqGdFieQvvvgipuWQquAmZmVlWU0urLuihJlrFNcMa7AiVyxNBClr+XTv3t1dffXVdiFnZGS4ypUrWywC1yQUFfzq7P8/kvXo0cPVqlXL1tGWgnMUcJsyZUpcAkQFTwShSZMm9v3A9/Tr18899thjrkWLFrYu2XCc1KXnODMzM+0YoVq1aptfx0vHjh2tw8yfP98tWLAgWFty+Cz7Qj39WPXj6cC9e/e2uvpFWQ6pBnEe9p1YzoQJE0pUk+vVV181YcWdLswKFCkqPnQq6kBjbSA2mOm33XabW7dunf2gYTAPvxoLBGvk0ksvtXZdu3Z1L7zwgnUCOtQZZ5xhbUsLAnPcccfZdqi/jRnN9uk4BFi5KEmTl5W+fftuNvup610UCOkuu+xiVkZ4nLg7999/v9uwYUPQKj6aNm1qIzuWZmng/BNgPe+881zNmjXN6owub4xg0gaKsxySDUHxSIuTBSGMJRKIKVVb+a1LE58iiUC11bp167pWrVoFa0U0KWv5UDGTrMPo0aNtFJkxY4ZbtWqVuRmMQgRGCf79+eefVhebTAPt5s6day4EZXcZjdu1axdssXQgXKSaMaMxublA2T7fhdXDhUk6OtnQKfbee29zabDEwuNEiBDnREAsg46yceNGc7uKA/GbPn26ddycnByLh2Ad0uEQRPYvEgYERGr27NlpVc2zcePGrnPnznauieWUFCxHKpgSPyP9LmKTsuKD+Y+AhOBHM9pz4T/yyCMmDIhLrHkuXPxff/21vcYFKwu4VJUqVXI9e/bcaqTE4uLCIkOVbHA7sY5+/fVXy7IkAwS9rO4b5Y0RQSyDwsobY9lhnR566KHlllovjOwYAWcsGwaZaJYtW2ZTCBBWrJ7SuPCJGhgqMikrPiVl06ZNJgiJBuFJJYij4HamApHZLgYBXLbTTz+9wGARCVYA8TfAikyXSXgI6x133GHHS6CcgHlJYWAURZO24kN8AjcB66Nbt27B2nwYocjccPEwma0sLFmyxP4+8cQTW42U4XLggQdam2QSHicXc6SlxTESh0pEtotRHwFnW8TUkgGWA9YR+51Ok/CITxGnwppmKkJJLDesZtwtfrfwOhJbk7biw0XBD0v2ibkjzKngwiYVP3XqVEtNk5IuLphbGNynQ5yFDA1ZDl9Zi08//dRcS+aicN8Qx4XVQQyMWEqisl3ffvutxdKSGSBlXg/ze3Cdr7vuOnN3YoFltHjxYjtubvXwDXEqrgEoieVGVpZbZrj+JD6Fk7biw0hE+pkfmGAmgWnM4+eff96EAquHrNe0adOsPesibw0IbwWIzH4w9yaEiw1/n4lzJ5544uYAa7gUNy+nKMLp++G2EBEyfMx9CdeFtyQQvGTWLFk3LC3SuLgwBKGx6rgtIxHgMuHWYU0hcMmA34xjROhIFpBJihVHIbaHO8c5QfyxOHyD5cb1hMVbnOVGAJ92DByxYkkin7SO+TAicSEQiMU9AWIjjDY33HBD3DNMESayHMxNiTV3pby49tpr3cMPP2yWGPAXd5DOm6j94l6lhQsXup122impnZ0BILzPqrA4ysSJEzen/HE3d9ttN3vtG26v4FpjsCvMcmOQIxPLoDBz5sxgrYhFRmZmZl7wukxgLTAnB9eHLJRIX/gNsUzIrHEfnM/5OEwp4FYNRIqZ3KEFm+owJ4wMKe5+RZ7hnIh+n9aWj0gszCPC1cT6KSomk0ywKi6//HLrwIA1Fj1pMVUhGE3yA5ea+WCiaCQ+cULch/hPGKspbgljOakKj9TAtSgqJpMsiIURe0J8mJ/FpEVcsOhJi6kIyQBmouP+40oq1lM8Eh9RAGIygwYNshnmPG+nvCFRwLwg4iWFTVpMRdhnnsvE3fHpNIvbJ3HHfIQQoizI8hFCeEHiI4TwgsRHCOEFiY8QwgsSHyGEFyQ+QggvSHyEEF6Q+AghvCDxEUJ4QeIjhPCCxEcI4QWJjxDCCxIfIYQXJD5CCC/ELT48TpEnt/HsFSHEP4NE9HtZPkIIL0h8ksCTTz5pD2F/++23vTwHWYh0QOKTYCid0rp1ayu33KxZM9e2bdvgHSFEJBKfBMODw7/44gsr8rdo0SJ7FrIQYmskPkng2GOPdXXr1nWdO3e2B7ILIbZG4iOE8ELKiA/1oWbPnm211x988MFg7RaoH049Kcq5XHTRRcHa/CJz1FWnRDKfZaHULlUuoyE9GNZY533a0f6XX34xd6lLly5Byy1cddVV7rPPPrM21N1asWKF1YOPbhtdf53l/fffD97dGo73pptuct98843tQ7htyhZH10oP05rUheJ9zgHt+UslT86BEOlGyogPheFee+01t2nTJtemTRvXokWL4J18qOvdoEEDt3TpUuuAQJvs7Gx3wgknmJuTkZFhS8OGDa165N13323tounevbu7+uqrrR3tK1eu7Pbdd183YsSIAkXyxo4da0LXpEkTawPUDkd4TjzxRPu/LPAdU6ZMcWeddZbbcccdbR+AbVPxkmM67LDDbF1IzZo13fDhw+39GjVq2Dr+0o5jESLdSCm367nnnnPLly+3kfyQQw4J1uZDFqlatWruzTffdAsWLLB1Q4cOde3atTMLgI7ZqFEjd8ABB1i97I0bN1rJ3ehOzDaoMY0lg9jwmdtuu82tW7fO7brrrgXaE7OhiN2kSZPcnnvu6WrXru0GDx5sKXTaR0K9arZFGyyUoqpsnn/++bZtqltOnjzZ9pntjx492iwatjNw4MCgdT5kzxAtYkj9+/e3z7z11lu2HrEWIt1IKfGhVC6ZIkb5SPFBeFq2bOlWrVpllSxDOnToYCJz3333WW1sOjydMysry82bN8/VqVPHtW/fPmi9BTJQuEl0dj4zY8YM23bVqlVd9erVg1bO3CEsHgQunK+Dm9OrVy938cUX2/9loWvXrvZdL7zwgjv33HNtn3Nzc00MsXqw/ihXHGn9IYJz5851AwYMcNOnT7fPcC7Wrl272SoTIp1IuYAzHWrNmjXuX//6l3V6QIhwuYiPvPjii7auU6dOrn79+uZ6YPWEcZZwQZiwcnCtopk/f74JXcg777xjlgcWBxZMCDW3ly1b5vbZZx+bOLhw4UKzgmLFhkoDoojlFCsNz75hEXFckbEcRPaVV14pkD3DSvzrr7+C/4RIL1JOfKZOnWpu1Q477GDxDUBI6GQvv/yy/Q9YDmGsJFnwfXz3zTffbEHnzMxMS6MTc8LaigcsmT///DP4T4h/HiknPmHgGVeiY8eO5uLsvvvuBQLNQHYKC4cOjAtErCV6wcIgvhIP7A/F/4nRNG/e3E2cONHcIvbrmGOOCVqVDiwbgsscXzRYWbh+uHwfffRRsFaIikfKiQ+Egee9997bHX744SYikYHmEKwROjEZqWHDhiX0PiriTO+++6576KGH3FFHHWXrEKIPP/zQ7tuKjg+VBraB5XPEEUe422+/3fYbF4vsGoFmhBdXkO8ToqKSkuJDPGbOnDmuXr16ln2isxOcjYZMERYRcR3m7jCvJjLuQ3wEESkrfD/CgwCF28Td2mmnnezWCUQkhLk4YZv777/fMlOISrgucl/Gjx9vgXWE84wzzrD9zsnJsSxZrVq1bD4TbYSoyKSk+ACBZdyTxo0bu48//rhAvCcE14vOS5B69erVZk0kCrbNPCFEgf0Atk+KnlQ+c4uiLbGSghANGjTIvfTSS5v3mwWRfeyxx2zbkYFlISoiGZmZmXH1WEZ85s1ceOGFBTJFQoiKSyL6fcpaPkKIio3ERwjhBYmPEMILccd8hBCiLMjyEUJ4QeIjhPCCxEcI4QWJjxDCCxIfIYQXJD5CCC9IfIQQXpD4CCG8IPERQnhB4iOE8ILERwjhBYmPEMILEh8hhBckPkIIL8QtPjxO8fvvv7cKoEKIfwaJ6PeyfIQQXpD4VGBOO+00991337kVK1a4q666KljrF8oJURmEskeUFypPKHtEPbR4y12LxCDxqcBQ6nm77baz+mAHHHBAsLZkYE5jVsdb+ywShOfee+91bdq0sUKQ5QlCt/3221tNfspfsy/CLykpPj179rRSwVQkTdSFn4oMGTLEOjejcTKg8OLPP//s1q5da4UJfXPZZZe5fffd1yyfU089dauKrHfdddfmIovRy8qVK60wZEjYlr+RDB482ApJ/vjjj+6aa64J1uZXm6XGG5VvW7dubQJU3paXKEhKig+VQqlCWqVKlWBNxWTHHXd09evXT9pxUml11113te8ZMWJEsNYP1Heivv0PP/xggpGMUtAMVJTORlSeeuopd/311wfv5MN3ch4QJ2rvx1vHX8SH3C6RdBCDY445xkQWUYhVfTaS7OxsV7t27QILIj1y5MigxdbwHQhco0aNzLpBhGJBKe6wyF2/fv3kfnkkZcSHUQsXBFM6rHXOhTR9+vQC5jcpvkh23nlnN2HCBLdkyRL322+/2fLVV1+5Cy64IGiRT7h93I8BAwa4uXPnWulj2i9evNhdffXVQcst7L///hYY5X3a8f0Eb1999VXXvXv3oFU+YeqReuvPPPOMmf205++0adNsPyGMpfDesGHDXLVq1QrUdA+XaHeiNLAvkduKdlmiCc9h5HFSKpq68YkA97Jly5YW/H7wwQeDtYnllltucQcddJDVwOe8FmVZUe6aY23SpIk7+eSTg7WivElry6dFixY2SlLbvG7dui4jI8MWXDb8fTpQNLghY8aMsc9WrlzZ2uPmIRoDBw4MWuWDIDFi8z7tgOAtojR27NitRs2aNWu64cOHu27durkaNWrYOv4edthhMcUtFeAYwvrwkcdZtWrVza/jpWPHjnbe5s+fX+b69kVBnKd3795u+fLldv6Lq3PPPrz33ntmiRGDEn5IGfEhCElHwMRGCBi5sBCOPPLIAuZ33759g084N3ToUNeuXTuzLrjosJTI6jCybdy40QLXdPxIEAM6FhYVbQcNGmQXLduOvhA3bNhgFtIll1xiWRK2f9NNN5llwOvDDz88aJlPpUqVzGLj4u/fv79t/6233rL1ZHgAk5/P8n0EPfkO2kceI8s555xj7csC5yjczuuvvx6sjc2///1vt9dee5nFM3r06M3Hyflcs2ZN0Co+mjZt6tavX28WaUnAMo203Fg4R7GSD5mZme7iiy+21wwIxbl0IfPmzbNAPNYPA5Eof9La8iGVjMgwf2PcuHEmWFykWVlZdnGRzm3fvn3QOh86+5QpU0wcaPv444+bwDDKYwlFQkyga9eubvz48S43N9e2j/ggirSNdkvy8vJsW3QexI3tz5w50y7y6G2nAghlp06d3F9//eX+97//WTA2PE4CwxxPvLB9rFJ+J9yuRMPvg9s4e/Zs98ADDwRri+enn34yQWQwCl1iUb6krfhwUROE5OJhlI4eKREm4im4YJEQ/0BwImFdLJiMRvyGDhnGQlii3a0QOtgrr7xiohOCVUXnTkUQZgQacWRaQzIoi/uWHSPgzDnHOo4Gyw6hPPTQQwuk1osjnIIg/JG24pPImEQsMPGxeIjfYNon87t8gzhu2rQp+C+9WL16tVmygMVL/KckEJ/jGhL+SFvxYRTECvnzzz/N548eKVkY1cs6l6NHjx5up512su8IYyHhdiMtm3SGjovoVK9e3TVo0CBYmw+iS5A4XsLfiY5OsD8ZMJ+HFD5uJNdCdJwvFrvssou5zbiYTGgV5U9Kig++OC4Mk+MIiBbm5uAq0EGY00F6tbB2ZYELmTgN4obY4Hodf/zx5oYlqhMR0MXqYHu33357ucceiE8tW7bMrACC/EwfwNUkXkX2K1Fxqm+//dYErlWrVsGaxMM1wPweguXXXXddsdcCgwkuO/E7BEiUPykpPmQsCE5y8ffp08fm5oTxlsh5PszBYbYqcR3msUS2Y0E0YmVISsLHH39s28D6YW4KrwloRqbR4+Xtt9+2TB3bY+p/Tk7O5n0v6zyfyHlELARkiX0hzrG2HQbEmYeD9fD888/bOSMOxjyoRMDEvnXr1ln2j2kKyQAB4RgROrJ3Rd0+wfr99tvPkg+x4kiifEhJ8eFC4i5sLtqigoJcOHRaOhAuRCKyMyGTJk1y99xzj00qZLssv/76q3VQJhkmAo6PDNPnn39u1p4Pbr31VhMjhIZjRCRmzZplHTlRAVmsxYULF5qQM28qWTDYcCwILBMOmXgYC1xxLB8GLvZN+CEjMzMzrh6LJcIowtT2cNq6ENFwfSBoCDhzmEo6HyfRYHlhyeLSMz2DqROi9CSi36dtwFmkF1hY7777rlk/JYnJJAPcLSxqgs08SUDC4xeJTwpDHIvYSxirKW6J536w8oBHauBiFheTSQZ8F88SCu//Yl+EXyQ+otwgJsPtLJ988okF2ssT4ohkLsmQEvOpKNMl0pm4Yz5CCFEWZPkIIbwg8RFCeEHiI4TwgsRHCOEFiY8QwgsSHyGEFyQ+QggvSHyEEF6Q+AghvCDxEUJ4QeIjhPCCxEcI4QWJjxDCCxIfIYQX4hYfHqfIA8t5cLkQ4p9BIvq9LB8hhBckPkngySeftAelUxrHx7OKywqPYaWMMI86LUnhvfKAZy5TxujEE08M1pQPPHaVSiUvvPBCWv2G6YTEJ8FQ86p169auUqVKrlmzZq5t27bBO6kPdbWqVKlilR14XRowwxP9HOnLL7/cnXXWWW677bYr1+c9Q+PGjV3dunVdp06dyv150/8UJD4JhlpiPKD877//dosWLbLnFacLFF2kfDK1ynjtkyOPPNINGTLEKrpSDpmCjZEg8jyHOfoh+uESuf9hW5bIIpIICnW7fvvtN6tmEWnh0PY///mP/ZZF1QATZUfikwSOPfZYGzU7d+6cVg8qp54WVgbVJXzV1QJEgZrr7AtuT7TwJAosGoSFwOnw4cO3+q34n5I/iFnv3r3dwIEDg3dEIpD4iJSD+vxUFKVkNoX9igLhwEqqXbt2gaU4t3Hw4MGub9++VtVi7NixhYrt448/7l588UWXmZnpTjnlFLlfCSQlxYeLb86cORb8ZNT56aef3OzZs2OW2t15553dhAkT3JIlS8x8Zvnqq6/cBRdcELTYAnEJ6mBRD4v3aUd7SgXjLnXp0sXaUdWSoOuqVauswF00xx9/vH0fC68hukZ6tOkfi3DfFy9evHnfeT1mzJitLnL2iY7www8/2LbZ57lz57oBAwYELcpGLPeF/yPdk2j4TgoA8rvQnv3GyksURx99tNXp5/dKhuVIMB3Lqnr16nb+i7OsnnjiCbtu9t57b3fyyScHa0W8pJz4UH4VH5+Rj+AncJG0adPG6rJH0qJFC5edne1OOOEEc3MyMjJsadiwobvmmmvc3XffHbQsSPfu3d3VV19t7WjPhb7vvvta3XQ6PTXUET++v0OHDsGntkAQktGVeMC0adOCtaWD+AKfJYtTr169zfvO6/79+7s+ffoELfMF4v7773c9evRwtWrVsnXsM8fPqE1gtrwg+4Q44prxuwD7XbVqVXsdLwwwTZo0sWzhe++9F6xNHPymuJcE1clmca0VB1YRv3XNmjXTKoGQ6qSc+OCDb7PNNmbqYjrTyY877jg3ffp0t2bNmqBVPkOHDnXt2rWzAnT47I0aNbLPPProo27jxo2uZ8+eW6WMq1WrZjWmsRwQGz5z2223uXXr1rldd911c3u+nxF99913d7169bJ1gDghPhs2bChgqlOvmm2xv2eeeaaZ80WBRUUHpt2UKVNsvxFcOsPChQst0BpCxqd58+ZuwYIF7rzzzrPvOOKII+z76fT9+vUzISoLWHwIIdvEfcF6KwysL0b+GjVqWICW34XPde3aNWFC0apVK+vk/Kb8BsXBOefaiLTcWArLujGAYeFiSV900UXB2uL59NNP7Tdp2bJlsEbES8qJD65WXl6edcTQb6eTYQ1Em7xYJYjMfffdZ7EBOjJmelZWlps3b56rU6eOa9++fdB6C2SgcJNGjx5tn5kxY4a5WHTkcDTnwscF2n777c1SCjnqqKMsDUsnJVNSFrBksOTY9/Hjx1tWhf3Ozc01S4bOEVpUiCsihRBSW3zSpEm2ns4zbNgw20dGcSy3ZIPlxXchglgPofji/iHeiQBrlAECly7RYB1zDIjT5MmTix0gImF/+L24pkRiSDnxQRAoadu0aVN35513Wlzl6aeftlE5EqyP+vXr2yiM1RM98iFMXMRczNHMnz/fXKsQRnHEjlEUCwa4MF977TUb7SJdL4QI14cORycsC+wTFgMXdKT1FIvddtvNOg0LsYnIY2QfsIgQTNolm1AYli5dWuZjLw7cSdy4klJYwBlxjAZX7pVXXrFzScwHi6+kLF++vIA1KuIn5cQHC4DgJaP6hx9+aNbIIYcc4h5++GEToTAQy/rSXKRl4bnnnrOLDiEksIxrg8VCxy+JS1AcXMzFWQx0RiYsphKJsnJ8MHXqVIvfYE2WZvIggpZqv0O6k7JnE1cKK4PRltjM6tWr3YEHHmgTz4BYBSJA8X9GseiRjwUT+fzzz7f2ZSEMPJNmxdJCBMlQxRNoBlyotWvXmuVWXEo4zG5hJRGcjnWcDRo0cKNGjQo+kTwQHSZP4opGQpyM2Fgi4HiJp3FMyYBziaWMxVSayYMMQFh9xKJEYkg58cHVIZYSOaeCe3u4KLECwmwP4J4RnCZwiKVUGjO6pGDhIHyIDwujX3GuUnEQr1m2bJkFVtlvxJV953gJoiOsYQqf18x3QahuuOEGm4aAAPqAqQmIJtYfk+/Yj0svvdQycYnaJ4SdxMIOO+xQINCfSPj9iK3hWpNdIzNaHASauf6IsYnEkHLiQwfs1q2bWT7hvBnmWZAFYdR56623gpbOgobEH7COmLvDvBrah0tx81VKAhYOHYLO9X//93/2fbECzeG9TSx0Ro4DQYm1L1z02dnZlnHDiiCDxb5zvMS8sCK40EPIhtGWDkCaOycnZ/N2WeK5FYKsULgdskbEvSIzSOxT+NgEXJavv/7a4mxYoOwHqXcszG+++cbaxAvCQJyP80JwOFkQP3vooYfsPJOgYNJhYZDl4349LNbXX389WCviJeXEhxGVQCojLJD5wvKYOXOmO/30080SCOE1qVPeow1tkwEdApMb6+PNN99MSLCVi3/QoEHm2kUeK/dVIarEm0LoJHSOyLY+QDRxcRE77gFjf7FIsciYdJgI+A6yj2yfFH4yrNmQG2+80QYzXFeOq7A7+Tn3iXC3RUEyMjMz4+qxjPjMm2FyYJgpEiIesBqff/55c++Y1R3G+XzAHCriQiQ3sK4ZCERi+r3C9yLlwPqZOHGiuX3cf1WSmEwywOqic2EZ4YZKeBKLxKcCER3zKmpJRDwsmdDRESAoLiaTDBAeZr4T68HVJjEgEovER6Qs3Gpyxx13WKKB+VblCdnI9evXW2aS21uwxkRiiTvmI4QQZUGWjxDCCxIfIYQXJD5CCC9IfIQQXpD4CCG8IPERQnhB4iOE8ILERwjhBYmPEMILEh8hhBckPkIIL0h8hBBekPgIIbwg8RFCeEHiI4TwgsRHCOEFiY8QwgsSHyGEFyQ+QggvSHyEEF6IW3wo17Jy5UorqCaE+GeQiH4vy0cI4QWJjxDCCxIfIYQfKBpYmiUnJyevONavX583atSozZ+ZPHly8E5BcnNz8/r06VNg+/zP+liwnci2LMncdlZWVt7q1auDFluIPr5wmTVrVtCiIJyz6LaptO10/X2SuW399gXPYVn6fXGLLB8hhBfiLpdM1Lt58+Zu3LhxbuTIkcFaIURFJhH9XpaPEMILEh8hhBckPkIIL8Qd8xFCiLIgy0cI4QWJjxDCCxIfIYQXJD5CCC9IfIQQXpD4CCG8IPERQnhB4iOE8ILERwjhBYmPEMILEh8hhAec+3+Lug9/YeYHZQAAAABJRU5ErkJggg==;" parent="WIyWlLk6GJQsqaUBKTNV-1" vertex="1">
          <mxGeometry x="30" y="210" width="124.78" height="140" as="geometry" />
        </mxCell>
        <mxCell id="VkJfk4KHNgsWcJ2oYwpS-3" value="" style="shape=image;verticalLabelPosition=bottom;labelBackgroundColor=default;verticalAlign=top;aspect=fixed;imageAspect=0;image=data:image/png,iVBORw0KGgoAAAANSUhEUgAAAVUAAAEiCAYAAABJK0FXAAAAAXNSR0IArs4c6QAAAARnQU1BAACxjwv8YQUAAAAJcEhZcwAADsMAAA7DAcdvqGQAAC43SURBVHhe7d0LmE31/sfxn7toQolCuhynSCdHIZeE45TQRRG6UBR6OlRS6Z/w1KGLQjoolKKnQqmDUtG9UKQihZNUco0SIp1c/uf9nbWmPXtmmNnz2zN7b5/X86xnZtZee+219t7ru76/7++3ZhVJS0vb70RExIuiwU8REfFAQVVExCMFVRERjxRURUQ8UlAVEfFIQVVExCMFVRERjxRURUQ8UlAVEfFIQVVExCMFVRERjxRURUQ8UlAVEfFIQVVExKO4BdWFCxe6LVu2uAEDBgRzRCTZcPxyHHM8S+4oUxUR8UhBVUTEIwVVERGPvAVVai7bt2/PmGrWrOlKlizp+vfvnzEvusbauXNnt379+kzPy2650MyZM7Msy5RdvSeR1j169OgsyzKtWLHCNWvWLFgqHX8zP7vlWU+0ZF23PvvE/HzYB/YlfIzjl+O45v+O58jnZPfeSDplqiIiHsXtxn+cyU466SQ3cuRIN3To0GCuiCQTMte+ffu61atXuwYNGgRz5UCUqYqIeKSgKiLikYKqiIhHcaupiogcipSpioh4pKAqIuKRgqqIiEcKqiIiHimoioh4pKAqIuKRgqqIiEcKqiIiHimoioh4pKAqIuKRgqqIiEcKqiIiHimoioh4pKAqIuKRgqqIiEcKqiIiHimoioh4pKAqIuKRgqqIiEfeg+rMmTPd+vXrXefOnYM5IpJsOH45jjmeJW+UqYqIeKSgKiLi0SEdVMMmzvbt2zOmhQsXBo9KKtNnL/GiTFVExKNDOqhOmTLFValSxR1xxBGuZ8+e7pdffgkekVSnz17iRZmqiIhHCR9UGdKxZcsWN2DAANe3b1+3cuVKt23bNrd161b37rvvuqZNmwZLpjv88MPdfffd57766itbjlrZpk2b3IwZM1z9+vWDpWLHNixbtsxen3Vv2LDBTZw40VWtWjVYIjZs94MPPui++eabjO2OnML3AGE9kBog+8S+/fDDD7bcmjVr3P3332/LRYre7s2bN9v717Jly2CJdKNHj7bH+RmpWbNmbsWKFTbxe+Q81nvddde5BQsWuJ9++sm2/7vvvst2O/LiUPnsJbUkTabKwT9w4EB37LHHuiJFirhixYq5unXruiFDhtjBBH4+88wz7oYbbnCVK1e25XDYYYe5Fi1auMmTJ7tzzz3X5sVixIgRdoBXr17dXh9ly5Z1HTp0cNOmTXM1atSwebEYPny4BaajjjoqY7sPhv166qmnbN9Kly5t88qXL++6devmbrnlFvsb48aNc4MGDcq03aVKlbL3j+dfe+21Ni9WFStWdEOHDnW1a9d2xYsXt+2vUKFClu2IVap/9pJakiKolixZ0tWrV88yBA4kamEPP/yw2717tzvhhBMyDpabbrrJNWnSxP32229u0qRJrkGDBq5WrVpu2LBhllnwvGuuucaWzSsOnvbt27t9+/a5qVOn2rpZ3+DBgy0bqlmzpuvSpUuwdN6w/QSOvXv3uhdffNHWzcQ+sI9r16611yZwRTr++OMt0JC1tW3b1tbxxRdfWCDh+WB/27RpY7/Pnj3bNW/e3Lb79ttvt0yrXLlyMW93qEyZMhZoXnrpJVs/2/Lll1/adrRu3TpYKjap/tlL6kmaTPWzzz6zZi8HCZ0Kr732mvvxxx9diRIlLOsCBzR/Ezz69OljTdN169bZwUimsmfPHsumYskqGjZsaAGIANajRw9bN9sxcuRIy1TIjOrUqRMsnTdkpwQmDtAxY8ZkNLNpPn///feWfRI8o+3atcuNGjXKXXjhhe799993ixYtspLA/v37bX2gic528xiZ8CeffGLb/dhjj9m2s47jjjsuX8GPdZDJXX311bZ+toVmMfOrVavmGjduHCwZm1T+7CX1JE1QXbp0qQWG0Pz58y0TIWOgJxd88clgOAij8XyyGJrJsdTAOBiLFi3qWrVqZZlP5MRBTLOXZmcs2K7ff//dnk/gI/NhoslONvrrr79ajTDazz//7N55553gr3RkbLwPF110kf1NwCbDYv8JBJGWL19u6yCj5DmxYh3z5s0L/kpHXZP3hoBDsMuPVP7sJfUkTVDNLbI0MiTfOKjihWbzm2++aQfn5ZdfbtkmE7/TrH7jjTfcq6++GiyddwRVgkpBIoCFtceCkoyfvaSelPq2EDjIumiuRTv99NOtqUjGt3jx4mBu7tGrjunTp9vYxuymRo0a2TJ5RROdbWb7yfoIDkw0cR9//HHXr1+/YMm8I8gQrM8888xgzh/I9igtkHFRX41Esz0SJYYjjzwy+Ovg2B/WTfZIMzzekvWzl9STUkH1448/tmBERwm1RprQNPceeugh66Qgc6LpGN0Mzo0lS5a4nTt3WqfPhAkTMoYV+XD22We7SpUq2WvQgUTTnebsiSee6G677baYtjdEs5nARufKs88+68444wzrKed1+vfvb7XXzz//3OqFYFky29NOO8117drV3kNGCPD+hSMMohGwqFfyXjPde++91vPP+/3hhx+6VatWBUvGT7J+9pJ6UiqoMnQo7HXmoKYJTd2QK2YY/kLPOMuEGAcZ1sbGjx9vwYaDMZxHh0R4AHEwMQ6TwNKpUyc3a9asjOWYIseR5hXPp+efLIvtiFw34z55XV4zFuwvzyeoXHDBBVaDZYzrXXfdZfVWOsJ4zRBBkIyOIM9YVd7DSy+91LaP7ckO66FTjfeaqXfv3pal8lnQU18QkvWzl9STUkGVA6F79+7u9ddfdzt27MhoRtOkppe2Y8eOtkysyNzGjh3rNm7caEHGlyeffNJ9+umn9judUpH1T5ruZIEMp4plnCWZ2ZVXXmkdOgxL4v0AmdecOXMsi5s7d67NwwsvvGAjELg4gGXZTzJNMmaC8cHwHF6HoUeXXXZZvt7vvEjWz15ST5G0tLT0o8wTMgDGFTLoO+yZlQMjiF1xxRWWDTFkJ7IGefPNN7tbb73VsiSG8ESPVS1MZHJh9terV6+MEoIkP4awMUyOsko4kkRyR92aCYBLKGmehwPdQwQtaqA0aclev/322+AREUlUCqqeUVujxhZZczvQRN2S6/1pqtKZ9PTTT2c8Ru2uXbt2NqTngw8+sMswk1F2/7v0QBOtHZFkpaCaACiVTJ482ep1XPkTIjtlEP0999wTc0eViBQs7zVVEZFDmTJVERGPFFRFRDxSUBUR8UhBVUTEIwVVERGPFFRFRDxSUBUR8UhBVUTEIwVVERGPFFRFRDxSUBUR8UhBVUTEIwVVERGPFFRFRDxSUBUR8UhBVUTEIwVVERGPFFRFRDxSUBUR8UhBVUTEI+9BdeHChXaLZm7VLCLJKbzVOsez5I0yVRERjxRURUQ8UlAVEfEo30GVmsv27dszppo1a7qSJUu6/v37Z8yLrrGOHj0603PCacWKFa5Zs2bBUun4m/nZLc96onXu3NmtX78+y7I51XlnzpyZZVmm7GpJibTueL6Hybpuffaxv4e8Dq8XPsbxy3Fc83/Hc+Rzstt+yUyZqoiIR0XS0tL2B797wZnspJNOciNHjnRDhw4N5opIMiFz7du3r1u9erVr0KBBMFdyQ5mqiIhHCqoiIh4pqIqIeOS9pioicihTpioi4pGCqoiIRwqqIiIeKaiKiHikoCoi4pGCqoiIRwqqIiIeKaiKiHikoCoi4pGCqoiIRwqqIiIeKaiKiHikoCoi4pGCqoiIRwqqIiIeKaiKiHikoCoi4pGCqoiIRwqqIiIeeQ+qM2fOdOvXr3edO3cO5oiIFJyFCxe6FStWuGbNmgVzCpYyVRERjxRUJeGRcSxbtsz99NNP7rHHHgvmFj62Zf78+a5p06bBHDmQc88913388cfuoYceCuakpkM6qFKioFSxffv2jImmgySWs88+2x1zzDGuePHi7owzzgjm5h6f6ZYtW9yAAQOCOfn3r3/9y3Xo0MGVK1fOlS5dOpgrB8JnWKFCBde1a1c3aNCgYG7qUaYqCe+DDz5wGzdudHv27HGffPJJMLfwXH/99e6yyy5zmzdvdjfffLObO3du8Eg6+hUiT9RMZNn/+c9/3H333ecOP/zwYMk/TuzRJ/OaNWtaFrxt2zY3Y8aMTM+JF1oE1CKjtz2cIrcxXDa6dsl2sr1sN9vPfoSefvppd++997rffvvN9ejRw1177bXBI6nlkA6qU6ZMcVWqVHFHHHGE69mzp/vll1+CRySRvPvuu+60005zRx55pAW0wlS/fn33j3/8wxUtWtQ999xzWQJqTsiyydRuuOEG98wzzxw0SN5///2udu3a7osvvnD9+/dPmu/mAw884M455xw7UQwePNiCbqQnnnjCTZ061fb/uuuuczVq1AgeSR3KVEXy4IorrnDHHXec++yzz9yIESOCuVn997//tQDDCZupS5cudnLYt2+fa9KkibvpppuCJbOiady4ceMcA1O88boXXnhhxraHU4MGDYIlskfmedFFF9kJgLppTiccatHs08knn+y6d+8ezE0dCR9UaUqF9bC+ffu6lStXWtNi69at9iWN7iTgDEgT66uvvrLlaLZs2rTJmiRkGfnFNtBpwuuz7g0bNriJEye6qlWrBkvEhu1+8MEH3TfffJOx3ZFTZE0wssnIPrFvP/zwgy23Zs0ay3KiRW83TVfev5YtWwZLpBs9erQ9zs9I2TX3wnmsl6xjwYIF1sxl+7/77rtstyMvwm2JnKK3Kxr7+fnnn9t2sDz76ysbop5LZ8uvv/7qnn/++Txlj3xGl19+ufv6669dyZIl3bHHHhs8khmBiaYxTeQDBaZEw/ty6623ulKlSrkJEyZYRpqTVatWuTlz5tjvrVq1SrlsNWkyVQ7+gQMH2pexSJEirlixYq5u3bpuyJAhGU0pftK0oolVuXJlWw6HHXaYa9GihZs8ebJ9+LEiMyGwVa9e3V4fZcuWtQ6LadOm5evLMXz4cAtMRx11VMZ2Hwz79dRTT9m+hZ0l5cuXd926dXO33HKL/Y1x48ZZ9hO53Xz5ef94fn5rWxUrVnRDhw615irNXLafDono7Yg3MiC+I8cff7xtB9jf8Pf8oll79NFH20n67bffDubmXtjZtn//frd3795g7h+oP/JZ5CYwJRL2qXfv3nbMvfTSS+6ee+4JHsnZW2+9ZSd23pOzzjormJsakiKocmavV6+eZR0EUeqgDz/8sNu9e7c74YQTMgIlTSqaVpzlJ02aZM2VWrVquWHDhlnWwvOuueYaWzavCJzt27e35hs1IdbN+miecZBxQNDEiwXbz0mDA+3FF1+0dTOxD+zj2rVr7bUJXJEIHpxkyDjbtm1r66AGR7ANm2rsb5s2bez32bNnu+bNm9t233777ZZl03sd63aHypQpY8GLA4r1sy1ffvmlbUfr1q2DpfKOAzVsenJCPBA6jsL9fPnll207eB7NWLJDH0488UQ7eX377beWbeUF20eWzWdGJk/nWyRORJQL+B7lNjDFC9+PWbNmZWohMOXUSuDkSYvx/fffd/369QvmHhjf2e+//96+I6eeemowNzUkTaZKDYtmLwGSZtdrr73mfvzxR1eiRAk7s4MDib8JHn369LGm6bp16ywQc1DSe0w2FUtG2bBhQwtAfBlonrFutmPkyJGWpXJQ1KlTJ1g6b8hOCUwE5zFjxmQ0s2k+88Uj+8yuubhr1y43atQoCxx8oRctWmQlATIh1gea6Gw3j5EJ03vOdpPVse2sgxphfoIf6yCLv/rqq239bAslEeZXq1bN6oPxxmfPfrL/1D3DUQJ8Xr///rv9nl8ERD5nTnIHQyJAB1MYkMg6eR84cVIKoHwQifeJhIDv69ixY4O5iY/v5nnnnWf7SBKQl5IIxy9ZLp9bKkmaoLp06VILDCGGa5CFclalFx98OGR2BOBoPJ8MlkwjlvongZgeX2pA4YESTgRwvhw0f2LBdnHg83wCH9kKE012DmRqeGQ30X7++Wf3zjvvBH+lI1vnfaDDAARssmv2P/oLv3z5clsH2UJ+vtisY968ecFf6ahp894QhDjRxRsnBlBzjxc+/1jxGRLoyb75vkQjUFOTpkRDlhqWtApDTh1VbHs0Pvs33njDgis1Vb63uUU/QSpKmqCaW2RpZEi+5eeAOhiae2+++aYFZjozyLaY+J1mNV/aV199NVg67wiqBO6CxMkrrN8WFD57X1lpfkX3/nPCJJsOE4BobPsjjzxiAY3aLTX2ZMHQMso9tALZ59yeEOiPSEUpFVQJHGRdNNWjnX766VYmIONbvHhxMDf36FXH9OnTM529I6dGjRrZMnlFE51tZvs583OAMdE8evzxx3Ndp8oOJxiC9ZlnnhnM+QOZPhkGGSX11Ug0RyORuTBONLfYH9ZNy4Embbyxn5z4yMwj0fGTU097XoXfgej3xhd6+unxp0VxySWXJM1VR3x/6FvI6wmB95GTD2WvVJJSQZXriglGdJRQa6QpQlOfLyodNmROlA3yUvcJLVmyxO3cudM6Q+iZDYcV+cBlmJUqVbLXoAOJpjvNcTpGbrvttpi2N0TJhMBGx9Wzzz5rw4LIJHgdan7UXhmCRO0RLEtmy2B7LifkPWSEAO9fTpdjcrIiS+G9ZuKqGToveL8//PDDPHfqxIJmP1kqnX7sW/i5//Of//RWs2M/aMbTORqvYUDUXvl+4UBXHfEZ/vvf/7aTMJ9ffka1+JDXEwJDASndkUisXr06mJsaUiqoMnQo7HXmoKYJTd2Qq6VoatAzzjKhyMsJx48fb19Ugkg4j86iMHjyRafmRWDp1KlTlt7R/FxbzvPpwCC7Yzsi1814S16X14wF+8vzCXAXXHCB1WDJKO666y7L6ugI4zVDBEGyeYI8vb28h5deeqltH9uTHdZDpxrvNRO1N7JUPgtGacQiHAMbvg8EePAznMfnF6LHn/2ixcC+hZ87+01vvQ/UjfmcCQYXX3xxMNc/aqp0trIv1CmzC5gMnA/r/NTd8zsszgdOCFyKynt+sMtQw+FpBFQ67lJJSgVVDkKu0Hj99dfdjh07MprRnM3poe/YsaMtEysOaHpmuQ49u3GGsXryySfdp59+ar+TCUXWP2m6kwUynCqWbITM4corr7RaHkPSeD9A1s0AbDLQyAHmL7zwgo1AYAwhy7KfZGhkzAStg+E5vA7DzhhGlJ/3Oy/IyO+44w67vp5tjtxuX0GV12BkAz37dFjGszOJkxRJABn33XffnaUDiE4vRhDQfEbYUVfYaKUwXOxAJwROBgxRJPgyXjU/LbFEVCQtLS39KPOE7IExpQz6zqkoL5kRxBgGREbJGT6yBsk/7ODLSYbMEKjosaqFiWwyzPx79eqVUUJIZTRbGS5GnZb/VEXAKyxc9MH7zwB6glO7du2CRxIbZQKyWFoyDMPzXR6idUVQL6zvZEplqsmKA5WzdniRQ4igRQ2UcgbZq6+MS2JHtkptmrozw98Kq9lNBkjiQhOa1s17770XPJLYeL8oZdGSZKx0QdTbC5qCqmfUVam7hXW/g03ULbnen2YznUnUpMLHqK2SfVA3o0nFJbjJKLv/W3ugKbJWmoj43xIMg6P5n1MTN554fxiFEtb7CaiRdfFERTClE5GOTUa18F1PRQqqCYCMY/LkyRn/MzREdsogejouYu2okvigaUndmBMoNfuCxveEf1rDd4PadTLUJel0ZegbGWphXoYbb95rqiIihzJlqiIiHimoioh4pKAqIuKRgqqIiEcKqiIiHimoioh4pKAqIuKRgqqIiEcKqiIiHimoioh4pKAqIuKRgqqIiEcKqiIiHimoioh45D2o8g90+YfE/GNiEZFEFv5Tef5ZvC/KVEVEPFJQTTBdunSxe1Ft2rTJbrWcCLiTJzdQmzRpUlzvIJpKuBfTkiVL7MaNcmg5pINqdvdO4k6Mhemss85yRx55pN3sj3tW5UW4P9wWOrx/UX4RUB999FFXp04dV65cuWCuHEylSpXspnz9+vUrtJsDSuFQpppgPvroI7uXD3fILOwAD+6lX7duXctUr7rqqkz3QiJwE8AjT0pMZNncbrtr167BkumoW/F4dP2KoPP999+7H374wQ0aNCiYG18Huxlh5M0Hw2WjPw9OOPPnz3fbtm1zM2bMyJTFc3NA7sXETe4K4+aAUngO6aA6ZcoUV6VKFbtHeM+ePRPi5mncYfKEE05wlStXdkOGDAnmFg5uSNi6dWu3YcMGC4S5fX/IsmvXrm33dz9YkCQwk80RkLhDaTLdEO7++++3/fziiy9c//79s7w/7Mvbb79t37E+ffoEcyXVKVOVbBHkLrnkEle8eHELdnPnzg0eyYos7sILL7STU61atdydd95pdeHSpUu7K664IsdSBK9B4CbocJtlgmtBI9Nmu6Oniy66KFgie5wsGjdubPs+ePBgW092xo4dayclSjnXX399MFdSWcIHVZphDHlg6EPfvn3dypUrrbm1detWa5I2bdo0WDIdBypNL27tzHI05WiO0jyrX79+sFTs2IZly5bZ67NuDpiJEye6qlWrBkvEhv2MbH6G+5wTXm/ChAl2m+JwP8eMGePKli0bLJE/1113nTv55JMtOLJ/ubVu3TrLah988EG3c+dOC1DHHnts8Ghmw4cPd+ecc4778ssvs830EhXlih49etgtxMnGD3TC4TtKiYDsvV27dsFcSWVJk6m2bNnSDRw40A7QIkWKuGLFilmtjyZyWMvi5zPPPONuuOEGaz6zHPhCt2jRwu6tn5/a1ogRIyzQVa9e3V4fBLEOHTq4adOmuRo1ati8eKOWx+t17NjRVahQIWM/S5QokfF7fjVs2NDet6VLl7pVq1YFc3OP57It+/btc3v37g3m/oHA1KZNG7dx48YDZnqJhveebadWykntiSeeCB7J2ZtvvmknDMo6vjoQJXElRVAtWbKkq1evnmWHBFGaiw8//LDbvXu3fVHDQHnTTTe5Jk2aWAbB8B+aXDRHhw0bZpkcz7vmmmts2bwicLZv396CxNSpU23drI+AQCbMwcZwqFjR3Aybnu+8804wN3u9evWyWh4ZKvvGPobbQnbow/HHH2/vIy2DvCCDpmPmxhtvdGXKlHHffPONe/XVV4NH06WlpdkyOFimF298bpEtBKacWgmcJB544AF7Tl7qv3Q+bt682ZUvX96dcsopwVxJVUmTqX722WfWC0sQ4az/2muvuR9//NGyM7IGNG/e3P6ePXu2dQyQ/dAcJRBP/l+WumfPHgtGsWSUZG4MKaI5R9OPdbMdI0eOtKyRA45hR/FGNk4tj+zvySeftH1jH9kWShH79+8Plowd6ycA/P7779b8PxgC+qxZsywgLV++3OqNZPMEkvHjx2dp1vM5EXzff//9XGV6iaJatWp20ub9plaaW2T6O3bssPo0w6wktSVNUKUZumjRouAvZ3WqMEOjFx8EPbJXAnA0nk/mRedJLPVPAnHRokVdq1atsmQ2BHAOGEoO8XbmmWfafjLkitpuPOSnjEBQp0VBJsdJkNEM0cjEOQH8/e9/L7AhVDnJrqOqYsWKbujQocESf1i7dq0NFeOEQZYalp1yg/dEDg1JE1Rzi4N6165dwV/+EFATCZkqmXciiOz9J+BTOrj66qsznQQjkbVR+wZZf7IMjue79cgjj9j+0sFGR1tuUWOWQ0NKBVUyUb68NNWjnX766VYmoA65ePHiYG7urVmzxn5Onz49S2YTTo0aNbJl4omARDBlX6KbknTG+Th4KXGQgZOxUrOOBzI9slmyvWQaHE/9lzowJQ2GnOUm06aVw2dFOSX8HknqSqmg+vHHH1s20bZtWzdq1CjrUKCpz0FABxU99pQNomt8ucF13HQC0WNNr29h9eJ+8skn1gylE4gLFhgVwbAyapqMBghHJeTX6tWrLXDHs2OFcamMT6WEc/fdd9vnlR0yWYaO0YHEJbOFjTow3wHkJtNmlAqXHnNCV1BNfSkVVMeNG2djHsnWunXrZpcV0nFC8GHoE1e+sEwocmwoHSpkTZG9wdTbwuDJQUQ9jZpsp06dMjpmwulg40oPJPqSSTpyGPHA2M1wXuSlnXPmzLGaKuNIyfZeeeUV2062wVftjqY79WlGOfgY35sdTm7sIwGcDkR61rOrU1I7p6zAe8JJjQyxsJFp0yFKC+VgmTYdfyz3+eefWytAUltKBVWCYPfu3d3rr79uzWSyVqaff/45Y1wny8SKa9np9WVsZXZjLwsK42UJsgRQ9o/gx+WQBCiCrQ9cLPH111+7Y445Jq5BjM+DfeHEkVOd8vHHH88Y2sUJ809/+pP9Xti4TJUTNa2hnDJtTnZc6svnwslQUl+RtLS0/I/BiUD2x5hSLj8Me+UlOfEZEqg5KfXu3btQx5Pyz0m45JXgy1Vtzz//fPBIYmNMMyNGGPGgK6oST3ilJrGK77gPKZWpil9kxJQ8yFYPVPOMJ7LA//u//7PABLLn6IsJEhWdWHQeUtphPLMcGhRUPePMR20zrIUebIqslSYi/vUfTdwD1TzjhVoztV2C6lFHHWUXE1AKiKWjsaDxz6mp5TMihZKGaqmHDgVVOaCwTs0FFfy/04JGzZj6OPXInC4mSERsM/8Xl4sIkumqMck/7zVVEZFDmTJVERGPFFRFRDxSUBUR8UhBVUTEIwVVERGPFFRFRDxSUBUR8UhBVUTEIwVVERGPFFRFRDxSUBUR8UhBVUTEIwVVERGPFFRFRDzyHlS5nQr/6Zz/fSkiUtC44WfkTTsLmjJVERGPFFQLwIsvvmg3z5s3b16h3OdJRAqOgmqc0QQ59dRTXdGiRd2JJ57o/vrXvwaPiEgqUlCNM2749uWXX7p9+/a5b775xu71JCKpS0G1AFx66aWufPnyrkmTJlZAF5HUpaAqIuJRwgZV7i///vvvu23btrmJEycGc/9Qv359ux89t03u169fMDdd37593bJly9zWrVvt3vobNmywdVStWjVYIl14j36GgbVs2dKa6txWmNf86quvXO/evYMl/3DXXXdlWvemTZvcK6+84po2bRoskY4hZQwti7zHP0M9csL+3nffffa6vH647hkzZti+Rho9erRt96BBg2y/2D+WZ9vfeOONLMuLSMFJ2KD6yy+/uLfeesvt2bPH1alTx9WoUSN4JN0555zjjj76aPf9999b4AmNGDHCgmX16tVdsWLFbF7ZsmVdhw4d3LRp07KsBxUrVrTgVLduXVe8eHFXpEgRV7lyZXfbbbfZ80IPPfSQBfDIdR922GEWUDt16mR/x4KA+swzz7gbbrjBXpfXB+tu0aKFmzx5sjv33HNtXqhkyZKuR48ern379rZ/YNsbNGjgBg4caH+LSMFL6Ob/yy+/7DZu3GgZ5t/+9rdgbjp61Qks7733nlu1apXNIwASZOgUmjp1qgWYKlWquMGDB1vWx3CmLl262LKRTjvtNAtg06dPt+dcfvnlbt26da5cuXKuYcOGwVLOaqL79+93Tz31lKtVq5Y74ogj3LXXXmtDpXbv3h0slW7KlCn22izTs2dPO0nk5KabbrJ1//bbb27SpEm2Dax/2LBhloGynmuuuSZY+g9sH9kwgZ7lGbrFvv/5z392jRs3DpYSkYKU0EF10aJF1nNepkyZTEGVgHryySe7H3/80c2ZMyeY6ywAEmhoxpPF0SlEMBs5cqRlqWSAZL3RWM+dd97punXrZs+hOb9y5UobBlW6dOlgKWfNcjLUM844I2O86fPPP+9at27tbr31Vvs7Fs2bN3clSpRws2fPdn369LFtIKgPGTLEslSy9dq1a2fJsr/++mt34403ugkTJtjyZOxsI/vJ+kSk4CV8RxVBc+fOnZZNEsxAgKXpT/3x1VdftXkg6BAIW7VqlVHHDCeCFc1jmtfRNm/e7B5//PHgr3Tt2rWzLDOyrjp8+HC3du1ad/rpp1tWSFAja42up+YVJwIy3eyGWy1dutQyWIJ7dE2YDHnu3LnBX85qqr/++mvwl4gUhoQPqs8995w17ytVqmT1RZx11llu7969mQIKCKjxxOvx2g888IB1VqWlpdlwKTLExx57LFgqNpQVdu3aFfwlIskq4YNq2GFFs5vmPU1taobRHVRYs2aN/aQ2SpaZ3dSoUSNbJlZsz9ChQ60GetJJJ1mGS/Oc7brkkkuCpfKGTJSabmT9NkRWXKpUKWvWL168OJgrIokq4YMqwg6rv/zlL+7888+35nJkB1VoyZIlVipo06aN1Rl9/pca1rVgwQL39NNPu4svvtjmEWA//vhju66fGibBLxasg0y1bdu2btSoUVavpanPaAM6qDihzJ8//4CdXSKSGJIiqNJh9dFHH7kKFSrY0CKCGJ060QikBD7qjwxxmjVrVqa6KmM7GW4VK16fgEpgDddJs/+YY46xS1AJjiHGvobLjB8/3oZNESzDeZH/mmzcuHHWIUe2SmcZ41mXL19uowYYLsV4XJYRkcSXFEEVdEjRTK5WrZr79NNPs9RTQ127dnVjx461zJa6qy+MKBgzZowFO7YDZJdcBMDwrY4dO2bJnHOLANu9e3f3+uuvux07dth6mTh5MGqBdbOMiCS+ImlpafuD370gQ6tXr5675ZZbbKymiEhBoqVH/0mvXr0sGSpoSZOpiogkAwVVERGPFFRFRDzyXlMVETmUKVMVEfFIQVVExCMFVRERjxRURUQ8UlAVEfFIQVVExCMFVRERjxRURUQ8UlAVEfFIQVVExCMFVRERjxRURUQ8UlAVEfFIQVVExCPvQZXbqaxfv9517tw5mCMiErtkiynKVEVEPFJQPYRwS+xly5a5n376yW6tnQi4bTc3Z5s0aZLdxrsgXXvttW7JkiXu5ptvDuaI5J+C6iHk7LPPdsccc4wrXry4O+OMM4K5uUPTiyYYt8omOPtAQH300UddnTp1XLly5YK5BadSpUru6KOPdv369bMAK+JDUgTVVq1aucWLF1uW5euATkTXXXedBa358+cHc/z64IMP3MaNG92ePXvcJ598EswtPHfccYerW7euZapXXXWV++WXX4JH0o0ePdpt374922nLli1uwIABwZJ/BH1uTxyJwM37uW3bNjdjxoxM2fB9991nGXupUqXcrbfe6s4999zgEZHYJUVQrVChgjv22GMtw0pllStXdhUrVozbfhK8TjvtNHfkkUe666+/PphbOG655RbXunVrt2HDBgue0QHVl/vvv9/Vrl3bffHFF65///5ZXueee+5xb7/9tqtSpYrr06dPMFckdmr+S4EjW7zkkkvs5PHSSy+5uXPnBo9kb/Lkye6II47INHHyGTp0aLBE9gYNGuQaN25sGezgwYOtFZCdsWPHWnBv0KBBoZ9sJPklbFClmc9BQFNv/PjxdiCSTcyaNStTM5DhFtH69u1rpYKtW7faMhwwEydOdFWrVg2WSBcO1ejZs6c1DX/44Qdbnp/PP/98luXr169vHSrfffedNSdZdtOmTe7NN990LVu2DJZKl9t1h81WHiOTKlmypDVZ+TtyIpuLVXbN6AOtj22bMGFCpv0cM2aMK1u2bLBE/lDmOPnkk923335rn0s8UCPt0aOH++2339xDDz10wMBNBk+J4LDDDnPt2rUL5orEJuUy1REjRlitrXr16q5YsWI2j2DQoUMHN23aNFejRg2bFypTpoxlMS1atHClS5e2efykvjZw4ED7O8TfZFiUI4oUKWLzOBAJthy4BMNIeVl3omAfeJ86duyYaT9LlCiR8Xt+NWzY0N63pUuXulWrVgVz/WEfCKrUSjk5PPHEE8EjOePESGnghBNOSOm6vcRfwgZVsgcODpp6ZHt84cnoLrzwwkzNwIsuuih4hrPA2b59e7dv3z43depUa86R3RLYyChZX5cuXYKl0xUtWtSyYLLiK6+80p5Dhw7z6ZWO9N///tc6eG677TZXq1YtWzedHWRy/H7++ecHS6bLzbqnTJliz2VfHnjgAXsNlo/cR6bevXvb8rHgueF6Jv+vKX0gvXr1shokGeqwYcMy9pP3cOfOncFS+XP88cdbBrly5cpgzoF17do1U5bNxHuUXfAj8PM+8llTWqBmmhsfffSR27x5sytfvrw75ZRTgrkieZdSmSoZEENzCMg0/TjwCMYjR4607IsDLjpQ7t+/3wIlBy6lBZ4zZ84c9+uvv2ZkuiGCdvPmzd24cePcunXrbN0EVYI9y0Y3j/Oy7kTACYAa5N69e92TTz7phgwZkrGflFDYn/xi/QSu33//3Zr/vlWrVs01adLEtptaaW6RMe/YscPqvAyzEolVSgVVmvZkgQzBis5s6NnlgKGHPRIH9xtvvGEBL8SwIwJLtKZNm1p9lAM2rDUykRVlJy/rTgRnnnmmnZQI+tSk4yGWMsLkbDqqeM85eUZbu3atW7BggZV/yFI5UeQWNXiR/EqpoEpAjReammSo1EfT0tK81RcTEUGfsazJiGz6kUcesdbDOeec44YPHx48cnDUeUXyK6WC6po1a+zn9OnTs2Q24dSoUSNbJq/OO+88uxqJzDSsNYbrjMxEkxnNX4IpHTzRTWBOJj6CDtkl7yEZK51C8UBPPx2HlC3oWGRo1cHQymGfaV2E3yORWCRFUKVTgy87TXc6UnJqbnMdN50pbdq0sV5fn724NCOpg+7atcuCKCWAyy67zMoBvoID206WyPpGjRqVZUhXvFH/pfnMqAU6BxkmRsmDejCjAXzVgVevXm2BO54dQvT48x0A9fWDXYbKlV1cFEFZR0FV8iMpgiqZB50aHNQXXHCBXYoY1jMjx6lyEFFPY9hSp06dsoxpjb60MS8+/fRTWwfZKmMr+Z0DN3K4VH7NmzfPxrGyvm7durnly5dnbHus41Qjx/sy0WmGyB71yPcw7EhjHCm956+88oqtg/fOV81x0aJFbvfu3TYaguFo8UJNdfbs2daaONhlqHSgsdznn3+eba1WJLeSIqjSjLvrrrvsYOSAPxCCBb2+vjuEnnrqKVsvQ7Oo2zH9/PPPFngY4+gD+0ePO5dUkp0XBsb5EsAJoOwjwY/LOLkw4WDvfW6R3X/99dd2gqJ5Hk9cpsr7SdZ/9913Z9vK4aTBJbPsHycVkfwokpaWlv9xMhHIeurVq2fXdjMGUyQ7fD8I1JyYGEd7sEtV44kxzYwYeeedd3RFVQJKtpiSUh1VkjzIiCnVkK3mlEEWBDqxKOEwWoDxzCL5paCaRCL/T0BupshaaSLiX//RNOcKLq6CysuYUh/459R0yFFqYeiVaqnig4KqFBo60Lp37+4+++wz66AraAwh4y4I/Ler3Px/AJHc8F5TFRE5lClTFRHxSEFVRMQjBVUREY8UVEVEPFJQFRHxSEFVRMQjBVUREY8UVEVEPFJQFRHxSEFVRMQjBVUREY8UVEVEPFJQFRHxSEFVRMQjBVUREY8UVEVEPFJQFRHxSEFVRMQjBVUREY8UVEVEPPIeVBcuXOi2bNniBgwYEMwRkWTD8ctxzPEseaNMVUTEIwVVERGPFFRFRDzKd1Cl5rJ9+/aMqWbNmq5kyZKuf//+GfOia6yjR4/O9JxwWrFihWvWrFmwVDr+Zn52y7OeaJ07d3br16/PsmxOdd6ZM2dmWZYpu1pSIq07nu9hsq5bn33s7yGvw+uFj3H8chzX/N/xHPmc7LZfMlOmKiLiUZG0tLT9we9ecCY76aST3MiRI93QoUODuSKSTMhc+/bt61avXu0aNGgQzJXcUKYqIuKRgqqIiEcKqiIiHnmvqYqIHMqUqYqIeKSgKiLikYKqiIhHCqoiIh4pqIqIeKSgKiLikYKqiIhHCqoiIh4pqIqIeKSgKiLikYKqiIhHCqoiIt449/8G9SOqx3ZN3gAAAABJRU5ErkJggg==;" parent="WIyWlLk6GJQsqaUBKTNV-1" vertex="1">
          <mxGeometry x="400" y="210" width="164.62" height="140" as="geometry" />
        </mxCell>
        <mxCell id="VkJfk4KHNgsWcJ2oYwpS-4" value="" style="shape=image;verticalLabelPosition=bottom;labelBackgroundColor=default;verticalAlign=top;aspect=fixed;imageAspect=0;image=data:image/png,iVBORw0KGgoAAAANSUhEUgAAAUgAAADtCAYAAADdsuzaAAAAAXNSR0IArs4c6QAAAARnQU1BAACxjwv8YQUAAAAJcEhZcwAADsMAAA7DAcdvqGQAACtbSURBVHhe7Z0LlE1l/8cfiUITShFS5FUukVJIitcquZRbKemCopJWSarlktVFoZDeWLkktIqIVolKSv27KEqUkqKLS1IkyS1p/uvzs/fYc5w9M+fMOeMcvp+19pqZfZ6997Of59nf53d5zuxCGRkZmU4IIcQBHOH9FEIIEYEEUgghQpBACiFECBJIIYQIQQIphBAhSCCFECIECaQQQoQggRRCiBAkkEIIEYIEUgghQsi3QC5atMht2rTJ9e/f39sjhDjUOVyee1mQQggRggRSCCFCkEAKIUQY/LuzWLYVK1Zk5sbu3bszhwwZknVM9+7dM7dt2+Z9up/Icv62YMECr0R2uHZk2XQ9d+vWrTPXr1/vlcjO5MmTDyjPvmhwDs4VLJtK51bfHxp9z33kRljbpPMmC1IIIULI9z/MJZtVpUoVN3LkSDd48GBvrxDiUOZwee5lQQohRAgSSCGECEECKYQQIeilXUIIEYIsSCGECEECKYQQIUgghRAiBAmkEEKEIIEUQogQJJBCCBGCBFIIIUKQQAohRAgSSCGECEECKYQQIUgghRAiBAmkEEKEIIEUQogQJJBCCBGCBFIIIUKQQAohRAgSSCGECEECKYQQIUgghRAihLgF8tVXX3U///yzu/rqq709QggRP6moKbIghRAiBAmkEAlg1qxZ7o8//nAffvihO+OMM7y9Bc9FF13kli9f7n7//Xf39NNPe3tFvBwWAonJjun+559/Zm2LFi3yPhUifyBKNWrUcEcccYSrXLmyO+uss7xPCp4LLrjAlStXzh155JHu7LPP9vaKeJEFKUQ+ee+999zXX3/t/v33X/fDDz+4pUuXep8UPB988IH75Zdf3D///OOWLFni7RXxclgI5LRp01z58uXdscce63r06OH++usv7xMhEkP79u1dqVKlXKNGjdw333zj7S14EOtatWq54447zt1yyy3eXhEvsiCFECKElBFIUvybNm1y/fv3d71793YrV650W7dudVu2bLFZsXHjxl7JfRxzzDHu0Ucfdd99952VI664ceNG98orr7hzzz3XKxU/1IFgN9fn3Bs2bHATJ050FSpU8ErEB/V+7LHHzBXz6x3c/DYAfvI3bdOsWTNrB4LvHMd99+rVy8oFiaz3b7/9ZsdxfJCnnnrKPudnEOJpWEBs/B7cx3lvuukmt3Dhwqx6/PTTT27IkCFWLh7iPXde+yevbejXg9j0qFGj3K+//pqV6BgwYICdn7/xRnziiW1zrmC9GbNz5sw5YHwD+xjPXJuyHMNzwTki8fszuEX2bRCekZdeeinr3LQHY5KxyRj1CbbL9ddfb2479fD7Z+DAgV7JQ5OUsyAZxDT6SSed5AoVKuQKFy7s6tat6x5++OGsjuPn888/73r27OnKli1r5aBYsWKuadOmbsqUKe7iiy+2ffEwYsQIe7AqVapk14cSJUq4K664wk2fPt1VrVrV9sXD8OHDTQiOP/74rHrnRpkyZezhpx0IvnMc9923b1+rk8/YsWPd/fffn63eRx11lB03adIkd+ONN9q+eKEegwcPdjVr1syqR+nSpV3Xrl3dXXfd5ZWKj1jOHU//5LUNGXdXXXWVO/roo63cpZde6m699VY7P383bNjQtWvXzisdG48//rjr06dPtnozZhFCrhkEARszZoyNZ64NHEP9rr322qzJKx54NnhGLrnkkqxz0x6MSUJQPFtBkYRTTz3VxJO2pR5+/1C+S5cuXqlDj5QSyKJFi7p69erZDIUgEjd84okn3K5du6yDfNG74447LNaze/duN3nyZHfeeee56tWru2HDhtlsyHHxdhoPS4cOHSzg/uKLL9q5Od+gQYNstj/jjDPcdddd55WODerPBLB3715bFsK52bgH7nHdunV2bYQiCDElHqSZM2da+U6dOrn169e7kiVLugYNGlgZ7rdly5b2+9y5c12TJk2s3vfcc49ZCZSNt94+xYsXt4fj5ZdftvO3atXKkhPUrUWLFl6p+MjruePtn7y0IfD39u3bTThJdhDL41r33XefWVjU8/TTT7eysca2GbOZmZk2WTFeOY5Ji6VB9H8QxgnZaKw07pey1PvJJ5+0ekWCJUwZNsQvJ26//XaztBkXjA/ugTZn3HCvtAcTUxAmjCJFirjZs2dbPbp162b14HpMOocqKWdBkgHEdUHsGHBvvPGG27x5s3UO1hDQmfxNh9LZuAAMdkSVwUEGD0skHkuPwcFDgivWvXt3Ozf1GDlypFknzJx16tTxSscGMzQPGA/y6NGj7dxsuJFr1661ID8WQiTcf79+/WzQUh6XDFeLZSUMXMCioN6LFy82CxVXiHrjIlL3HTt2uJNPPjlfQsY5sN5uuOEGO//7779vVhn7K1as6M4//3yvZOzk9dzx9k9e2hAQiLfeesuscdY1Imhvv/22WXNMyJzft/5iBbeUY1l+g5DDjBkzrE/uvvtu+9uH+jKOGTNYelh01Bv3mvHP/ccD1+LZoF1pM8YH7UebM24YP0wkkUuE/v77b7MsO3fubPXAPeeY/LRHOpByAvnFF19YJ/l89NFHNtsyy/nxHx4QZtxoyyk4noHMoI8nXoio8tA0b948WzyHDTHGzcI1iwfqtWfPHjuewchDwoZbfMopp7idO3faQxQJccQJEyZ4f+2jbdu2Nnv7MTQeJB5u7p8BH2TFihX2sDPwabt48RdCByGOR9vwoDBpxUtezx1v/+SlDQHhePfdd72/nFmTTNKJgPAKXkLt2rXNg1i9erVZk9Hij+PHj7f4I+P45ptvdt9//721D7HXSPc3Fuh/xgFx2ch4KePm22+/td8ZT0EojygGYd+hTsoJZF5hZmcwJxoevmSB+4g1wkOMi8cAZeN3ZuH58+e7119/3SsdOwgkIlyQ8AAny4KIdu5k9k+ywTKtX7++Gzp0qCVqMjIybHkQQhjtWy8s07nyyivNrd22bZuFCR544AH3ySef5CvGDlinTCoiZ9JytCECzILB2JEPszOuOJbYZ5995u3NO2vWrLGfxKr8mE7kRqA+HnCDqTP19903NtwprBsC+PHCZIHwnnPOOd6e/WCB477zQBB3CoL7GuSyyy6zuFte4X44NxY9YY5EEu3cyeyfggArjRgz8cgqVapYvyNWuL7Rkj9MqLi1p512mokpFh6hkngTbkEvhgRQECzTatWq2Zgk5CPSVCA//fRT60QC+SzJwE3FnSZLSLICqwPXPNLVzAvLli0zt4qEB25OfrKFkfA1sBNPPNGuQXD88ssvN5eHr6eRFIinvj6EJRASAugvvPCCxZAY8Fzn3nvvtdjnl19+mRW7oiwWJ1YJyzdoQ9w92i8YkwvCxEP8irZme+SRRyymR3t//PHHbtWqVV7J2MnruZPZP8mEerKE6bnnnnNt2rSxffQ3Y5nJMhhjB+KxeBf0HX0DTBJfffWV9Rv9GQ9YsUwyZK9ZHYCVyjjBzZ86daplzzEugmGGw5m0FEgC6H6Gk4eIgUScjUwiHc8goowPa+D8ONW4ceNsQDDo/H0Enf0HjYeOgYxIsPQC98Yvx0bcxV+nGCscTwYby4h6BM/NGjuuG7ncI69wvxyPoLRu3doGOGv0COoTT8Ii4Jo+iA4PAoLNejnaEAuF+lGfaHAeEkq0NRuxOyw8+oLVBvkhr+dOZv/ESizjClgWgzgikn4ZXGuy1WTIEUsfVnRwLu6FvqEsP7EySZjQBj5cg2v552TCA376+6grIMpMhPQ9ExHJUMYJSSvOg+FB8pPkkUhTgWQwsMzgzTfftNiM76oyE5PJ7Nixo5WJFwYWWUuWMSAYieLZZ591n3/+uf1OQiYYL8Q9xoLC/YonvsTAxxUjkcUyKdoDsLbmzZtnliHWgw8BdzLpJC8oy31ipWHJ8sDkBsdwHZbaECfLT3tHktu5k9U/yQTLnfZG/P1+D94nYzZogbP0i5h1sC85jsmfjDdfkoiXZ555xs7Bufy60I5Ylg899JC+ohigUEZGxr7WjxFmJNYsYqYHv10gwuEBueaaa2z2Z4lKMGZ355132qDFMmL5ReRayIMJloVvkZNRjXeJSTSSeW6RXqSipqRvSjANIb6DC+wviPdBJIgZEjJgRv/xxx+9T4QQBxMJZJwQGyLe5cd4ctuI8xFnwl0ikRKMQxFHY00eS1j4d1UsyE1Hon03OafNj4sJkapIIAsQXIcpU6ZY7IylHT5YjSyKfvDBB+NO0gghEk/cMUghhDjUkQUphBAhSCCFECIECaQQQoQggRRCiBAkkEIIEYIEUgghQpBACiFECBJIIYQIQQIphBAhSCCFECIECaQQQoQggRRCiBAkkEIIEYIEUgghQpBACiFECBJIIYQIQQIphBAhSCCFECIECaQQQoQggRRCiBDiFshFixbZa095/akQ4vDgcHvuZUEKIUQIEkghhAhBAimEEGFkZGRk5mVbsWJFZm7s3r07c8iQIVnHTJ482fskO+vXr89s3bp1tvPzN/ujwXmCZdm6d++euW3bNq/EfiLr4G8LFizwSmSH+4osm67njrUNk9k/6vtDo++5Vm6E1f9Q2GRBCiFECIVQSe/3mCCbVaVKFTdy5Eg3ePBgb68Q4lDmcHvuZUEKIUQIEkghhAhBAimEECHEHYMUQohDHVmQQggRggRSCCFCkEAKIUQIEkghhAhBAimEECFIIIUQIgQJpBBChCCBFEKIECSQQggRggRSCCFCkEAKIUQIEkghhAhBAimEECFIIIUQIgQJpBBChCCBFEKIECSQQggRggRSCCFCkEAKIUQIcQvkq6++6n7++Wd39dVXe3uEEKLg4B3d33zzjbvooou8PYlHFqQQQoQggRQpA5bA8uXL3e+//+6efvppb+/Bh7p89NFHrnHjxt4ekRMXX3yx+/TTT93jjz/u7UlfDguBJAxAOODPP//M2jDPRWpxwQUXuHLlyrkjjzzSnX322d7evEOfbtq0yfXv39/bk3/+97//uSuuuMKVLFnSHX300d5ekRP0YenSpd3111/v7r//fm9veiILUqQMH3zwgfvll1/cP//845YsWeLtPXjccsst7sorr3S//fabu/POO91bb73lfbIP4vDBSZcN6/fbb791jz76qDvmmGO8kvsn6ciJ+YwzzjDrdOvWre6VV17JdkyywFIndhdZd38L1tEvGxnro57Ul3pTf+7D57nnnnOPPPKI2717t+vevbu78cYbvU/Sj8NCIKdNm+bKly/vjj32WNejRw/3119/eZ+IVOK9995ztWrVcscdd5yJ08Hk3HPPdbfddps74ogj3NSpUw8QxzCwfrGgevbs6Z5//vlcBW/IkCGuZs2a7quvvnL33ntv2ozNoUOHugsvvNBEf9CgQSagQZ555hn34osv2v3fdNNNrmrVqt4n6YUsSCGicM0117iTTz7ZLV261I0YMcLbeyB///23iQWTL9t1111nQv/vv/+6Ro0auTvuuMMreSC4n+eff36oyCQbrnvZZZdl1d3fzjvvPK9EdLAIL7/8chNz4oxhkwexW+6pWrVqrlu3bt7e9CJlBBJ3xY8f9e7d261cudLM9y1bttiAiwyQMzPhxnz33XdWDtdg48aNZvYz++cX6kDCgOtz7g0bNriJEye6ChUqeCXig3o/9thj7ocffsiqd3ALxtD4yd+0TbNmzawdcOE4jvvu1auXlQsSWW/cQ47j+CBPPfWUfc7PINFcKn8f58UaWLhwYVY9fvrpJ7OC8oNfl+AWWa9IuM8vv/zS6kF57jdRVgrxTxINO3fudDNmzIjJqmP8derUya1evdoVLVrUnXTSSd4n2UFkcD9xQ3MSmVSDdrn77rvdUUcd5caPH2+WYhirVq1y8+bNs9+bN2+ellZkylmQPMgDBw60gVWoUCFXuHBhV7duXffwww9nuSv8xH3BjSlbtqyVg2LFirmmTZu6KVOmWEfGCxYD4lSpUiW7PpQoUcKC9dOnT89XRw8fPtxE5vjjj8+qd26UKVPGxJl2wIXjOO67b9++ViefsWPHmlUSrDcDmeMmTZqU71gQ9Rg8eLC5hH49CMZ37drV3XXXXV6p5INlwhg55ZRTrB7A/fq/5xdcxxNOOMEm3AULFnh7846faMrMzHR79+719u6HeB19kReRSSW4JyZlxt7LL7/sHnzwQe+TcN555x2bpGmT+vXre3vTh5QSSGbcevXqmTWAIBI3fOKJJ9yuXbvcqaeemiV6uC24L8y+kydPNpegevXqbtiwYWZNcFyXLl2sbKwgOB06dDAXiRgK5+Z8uEA8MAxu3Kh4oP5MADw0s2bNsnOzcQ/c47p16+zaiFAQ4nKI/8yZM608Fsr69ests9qgQQMrw/22bNnSfp87d65r0qSJ1fuee+4x65ey8dbbp3jx4iZEPBycv1WrVu7rr7+2urVo0cIrFTs8dL57x+SWEyRN/Pt87bXXrB4ch6uI1ZYIKleubBnrH3/80aygWKB+WL+INxY2iacgTCq45IyjvIpMsmB8zJ49O5vlzhZmvTMR4sm9//77rk+fPt7enMF7Wbt2rY2RGjVqeHvTh5SzIIn5kPFD7HBt3njjDbd582ZXpEgRm3GBh4K/EYLbb7/d3D8EA1HlASMLipUTj6WH4CAmdCwuEOemHiNHjjTrkQFep04dr3RsYDUiMgjt6NGjs1xZXFQGUalSpaK6ZNx/v379bIBSfs6cORaCIIHgLz3BDabeixcvNguVLDD1xtqi7jt27LCYWn6EjHNgXd9www12fh4ULFv2V6xY0eJpyYa+5z7JtBIn9LPd9NeePXvs9/yCuNHPTFi5waROcsUXF6xB2oFJEHcbFz0I7cTkzngdM2aMtzf1YWxecskldo9M6LGEHRi/WJ/0W7qRcgL5xRdf2EPuwxICrENmO7LRQENjcSGmkXA8liXCEU+8EFFFeIiZ+IPe3xBjOhoXIx6oFw8xxyNiWBFsuMU8lMS8sDoiwUWZMGGC99c+2rZta5aTH4dEfLF6uf/IwbtixQr3xx9/2Cyen0HKOT788EPvr30QC6VtEBQmrWSDyAMTRLKg/+OFPkS06RfGSySILjFcwiBYj37Y6GAQlqSJFtum7+fPn29CSQyScZtXiKOnKyknkHmF+A6WS6LJz8ORG7hUb7/9toksbjJWEBu/47oyAF9//XWvdOwgkIhwQcJE5Mc7Cwr6PlHWYn6JzGIz+WHl+pN5JNT9ySefNHEi1klMOl1guRMhFbwz7jmv4k78Pl1JS4FEBLCG/PhbkNq1a5srjiX22WefeXvzzpo1a+wn8b7grBrcGjZsaGViBTeYOlN/ZmQeFjZcECzEvMZ1osFkgfCec8453p79YIEz82PpEY8MgssXBIuCdYh5hfvh3Fj0uI3JhvtkEsNiDkLSIyxjHCv+GIhsm0RBxprMNZZ+u3bt0ubbJowfYvGxijvtyERCaCndSEuB5HueCAtJglGjRpm5jzvNoCNZgUWDax5LnMRn2bJlbvv27ZYIIMPoL3VJBHyV7sQTT7RrkDxhLRkuL0kBMtLx1NeHsAQiRRLnhRdesKUqzPBchxgZsU+WxRCrA8picZIA4ithtCGZbtov7Ct1TDxYD7Q1G9+WIC5Ke3/88ccxJzTiAdca65GEF/fm9/tDDz2UsBgX94GrTGIwWUtTiFUyviCnb5vQL4Q1mFCJ+cbi2iaDWMWdJXeExzAKvv/+e29v+pCWAslyFj97ygOKm0qcjW/JYM7zrQTK+AS/EjZu3DgTDgaav4/Ehy+EDFpiRIjEVVdddUCWLz/f9eV4gvdYXdQjeG7W83FdrhkP3C/HI1atW7d27777rs30AwYMMGuLJBDX9EHQsLIRbLKWtGH79u2tftQnGpyHhBJtzUasCuuRvmC1QTz4ayz9dkCsgZ/+PvrPh8w194Ulz735/c59k3VOBAgS/cyD3aZNG29v4iEGSaKReyGuF21pGtY/FhhW85lnnmmx64MN4s7XCWnz3L5K6C+ZQhxJWqUbaSmQPFCszH/zzTfdtm3bslxVZlkyzR07drQy8cLDSYaR7wVHW8cWL88++6z7/PPP7XcslGC8EPcY64wlPvGs4WRG79y5s8W+WCZFewDWMIt1sQyDi5Ffeukly6STAKIs94nlhCWLAOUGx3AdlkKxtCU/7R0LWMr33Xeffd+ZOgfrnSiB5BpYa2SoSdYlM5HChMOEjiX8wAMPHGAhErem37D2EUms2lQA74ElTDmJO9Y3y+YQUtZD5sdDOlgUysjI2PckxQizOmsWWSAcFpAW2UGQWJqCpcfMG4zZ8c8QGGhYrizLiVwLeTDByvMt8ptvvjnLTT+UwTVkCRNxTf6jD+J1sGD9KsveCJMQBsnp64upBK441iUeBkvDEh2CwetBoJM5JtPSgkxXeOiYTf0F8T4IEDFDQgZYlYmyhET8YEUSy8Vyw63NyY1MJljnCADi6Mch0wHai3ARHh5rcQsiPp0MJJBx4n9P2o+T5bYR5+P717imJFKI4fifEYtkXSMuFG4LX6NMR6L9382ctmBsMRXhu/64uLjYYW5kMsFCIt7HygwSU7QXoZFUB2EkgUZSj9UZjPV0RQJZgBCOmDJlStb/PPTBamTBNUH7eJM0IjlgvRFnZTLEgitoGBvEKBk70RaepyIkHFmOheV4ML9KmQjijkEKIcShjixIIYQIQQIphBAhSCCFECIECaQQQoQggRRCiBAkkEIIEYIEUgghQpBACiFECBJIIYQIQQIphBAhSCCFECIECaQQQoQggRRCiBAkkEIIEULcAsk/7+Sfo/JPUoUQoqDhHwoHX7iXDGRBCiFECBLIBDJr1iz7r9O8NjTy7XQFCTPq8uXL7T8781+d04VUrTd14T3rjRs39vaInODVFLy7npd2pTsSyATBw12jRg17r0zlypXdWWed5X1S8FxwwQWuXLly9ipZXgaWLuS33rhc+XlveTR4oyGvLi1ZsqS9cVLkDn1YunRpe33y/fff7+1NTySQCYLXTvJ6S96Cx8u5li5d6n1S8PDiL/+9N0uWLPH2pj6pVu9bbrnF3irIu8N5LW/wveJAHD7yRWRYv7yzmxd+Bd+n7b/QDBEPgqeBdbp161Z7sX4y38Htw2RO7C6y7v4WrKNfNjLWRz2pL/Wm/tyHDy/p4r3ZvE+H1xsfrDdCJgIJZAJp3769K1WqlGvUqFGBvUg/Goh1rVq13HHHHWcPebqQSvXmFb233XabeQRTp049QBzDwPrFgurZs6e9nTI3wRsyZIirWbOmvZjr3nvvTZuX6w8dOtRdeOGFJvqDBg06YLzzNkZedsb989rcqlWrep+kFxJIIaJwzTXXuJNPPtk8gREjRnh7D+Tvv/82seAF9my85B+hx5NgoszpJf+4n+eff36oyCQbrnvZZZdl1d3feC1xTmARXn755SbmxBnDJg9it9xTtWrVXLdu3by96UVKCKRvxhOgZ7ZZuHChuSqY7z/99JPNstHo3bu3HbNlyxZzDTZs2OAmTpzoKlSo4JXYh/8Oa1yiZs2a2QD2z8/rVnv16mXl/HrgYowaNcr9+uuvWQmDAQMG2Pn5e9q0aVYeor0LOtKNioRzBeu9ceNGN2fOnKhJAPbhynBtynLMypUr7RyR8O7tYD3Y2BcGVhLvWfbPTXsQHnjssceyWT7BdiGuhPtLPfz+GThwoFcyPmKtN9D3X375pfUH5alPoqwU4p8kGnbu3OlmzJgRk1VHX3Xq1MmtXr3aFS1a1J100kneJ9lBZHA/cUNzEplUg3bhHeG883r8+PFmKYaxatUqN2/ePPu9efPmaWlFppQFWaZMGTd48GBzOXBVChUqZMHerl272nuBgzCrI3yVKlVyhQsXtn0lSpSwgPr06dOjdgbnR0Dr1q2bdf6yZcu6vn372nE+DGreT01QnnKXXnqpu/XWW+38/N2wYUPXrl07r3Rs8DD06dMnW72LFStmQhj5TmwEbMyYMa5p06Z2beAY6nfttddmiwnFCgN9ypQp7pJLLsk6N+1x/PHHux49ekR1D0899VQTT9qWevj9Q/kuXbp4pZIPExaifMopp1h/APXxf88vuI4nnHCCTVwLFizw9uYdP9GUmZnp9u7d6+3dD/E6BDIvIpNKcE8YEzwzL7/8cp7eef3OO+9YDJc2qV+/vrc3fUgpgSxevLgNdBq/SZMmrlWrVpb4QEBatGjhlXImZh06dDA3hjgHLkH58uXNTWFQMwBxdSIhvsW5Zs6caccw069fv94ylA0aNPBKOft7+/btJpwkDYiJca377rvPLCzqefrpp1tZrEmujWuCUORmbeB28eBMmjTJVa9e3Y7jYWFp0K5du7xS+8DaZWBhpXG/vvvz5JNPWr0iYfD6bhLilxO8hB5LG+vxnnvusXugzefOnWv3SnswMQVhwihSpIibPXu21QO3iXpwPSadeIml3iRNWrZsab+/9tprVmeOw1XEaksErELgXn/88UezgmKB+mH9It5Y2CSegjCp4JIzRvMqMsmCPqcv82q9Mx6YyN9//32b5PMC3tratWvtuWOVR7qRUgK5Y8cOswxvuOEGc+PoCCw+9lesWNHiNcDDi4jR+LgpuH8I08iRI816ZBDWqVPHygbZvHmz69evn3U0x+DW4q4SiA8u4UAgcHnGjh1r6xoRtLffftusOVwizu9bf7HCQ8OxuHE8JIAbxwSA6xKE+pLRxarD0sOio9641wgD9x8PXAsrnXalzbDIaD/anBDH4sWLbUBHLrUh3oZl2blzZ6sH7jnH5Kc9YoX7pu9x94kT+tlu2mLPnj32e35B3LindevWeXvCwY0mueKLC9Yg4xTLEXebvg3COGaSZGJmPKULJB8Zg9zj5MmTYwo7MI6xPum3dCOlBNJfZB2EGCGdwoDFegFcPESNuIY/MP0Ny4jOwA2IBFN/woQJ3l/7aNu2rVkgfhwSEI53333X+8uZNfnGG294f+WP4cOH24NXu3ZtW1iO1YM1GS3+iPvFQ4Z433zzze7777+39iH+llt2NCcYqAggcdnIeCkDn2UqgDAHoTyiGIR9BQmJE2BiSxaMrXghboloM54Yi5HQ98TYCbFgPeanH/NLWJIm+Cz48GzOnz/fhJKJ3J/c80JBj5FEklICGQ3EIdI6yc8APthgmRKLwc0iUZORkWHLgxBCLLlI/LV4uELbtm2zMMEDDzzgPvnkE4sj5gesUyaVdAOLPlHWYn6JzGIzMWPlBhN5Qag7IRLEiVgnE2a6wHInQl54H9xzXsXdj3GnIymvNLjTzFrE53BLYM2aNfaTWGJw5gtuJFJSFaw0klG4WlWqVDGrFrHC9Y2W/MG9x6097bTTTEyx8LCk4l2AS5gAgeFhJgEUhEHPsgweZGJHqQbWPRNkpHVLW4RljGPFH1+4w8mASZJkHeOA/k6Xb5swmRLnj1XcaUcmEvID6UZKCSRZPWYnkgdsrMYnXogF+fHHH2cFzJctW2ZuL8F63ND8ZHMLEuqJe8U3Ddq0aWP7eEj43iouDCEE2sCHeCwuMDEu36VhkmBRMXFSkkXxwAOKCDCzszoAKxVhxM3HSiB7Tqw0GGZIFXCtEXesZ5JLjBPE5qGHHkpYjItxhqtM1j5ZS1OIVTJ2Iadvm9DvhFUYH8TkY3Ftk0Gs4s5YIhnEpEyIKN1IKYHEKmDN44oVK2wjFoL1iFn/xBNPeKX2xeYQGtxvlsZEZuKIeSTy+7g5Efy62bhx40xoGMT+PpIZQQFnWQziiEj6ZXCtyVaTIUcsfUgAcC7uBaGkLD8ZmMzItIGPv1bRPyfrFYGf/j7qCgxu4p6IIAIzbNgwswpIWnEerEey2ZEJhmQQS72BzDV1xUsgWcU4YfUAkyhZ50SAIDGGeLD9iSwZEIOknbkX4nrRQiasdMACw2o+88wzLYl2sEHcGb+0eW5fJfSXTCGOhJHSjZR1sXlIWfzLMh5icDxEQXiAyAKyzCTaWrNUhEzr6NGj7aFmRoXgfXbs2DHbshKyhSwF4XPKAcdhQfJA8X3feGGQcw7O5deFdsSyxBpL1a8okmFnuRVhBurLRpuxJCtRAsk1sNaYoEgEJjORgkFAHzBREVuOtBDpf6w2PAZEEqs2FcC7YwlTTuKO9c2SPISU9ZBMzOlGoYyMjH1PXowwq9erV89ctLCAdF7BimBJDZCtjXf5ihCJAteQJWbENfmPPojXwYI1vVj5hFSw/HP6+mIqgSuOdYkHyNK9WNeU5gbeFAKdTM1I33SwEEkEK/KFF14wyw23Nt6EWH7Be0IAEEc/DpkO0F6Ev1h5QQgp0eJYUEggRcKI9r30nLZgbDEVIYSBi4uLHeZGJhMsJEIhrJklMUV7Ra5DTUUQRhJoJBxZoUG8Ml2RQAqRA1hvxIdJ2mDBFTR+zJlQVrSF56kI/0CE5VhYjgfzq5SJIO4YpBBCHOrIghRCiBAkkEIIEYIEUgghQpBACiFECBJIIYQIQQIphBAhSCCFECIECaQQQoQggRRCiBAkkEIIEYIEUgghQpBACiFECBJIIYQIQQIphBAhxC2Q/PNO/jkq/yRVCCHySypqiixIIYQIQQKZQGbNmmX/dZrXhka+nU4IkX5IIBMEb2asUaOGvZqzcuXK7qyzzvI+EUKkKxLIBMFrJ3m9JW/B++GHH9zSpUu9T4QQ6YoEMoG0b9/elSpVyjVq1Mh988033l4hRLoigRRCiBAOukDyzmFehr5161Y3ceJEb+9+zj33XHvt5a+//ur69Onj7d1H79693fLly92WLVvsPcsbNmywc1SoUMErsY/+/fvbaztZRtCsWTNzh3k1Jdf87rvvXK9evbyS+xkwYEC2c2/cuNHNmTPHNW7c2Cuxj2jvguZ9xmFwv7xvmetyff/cr7zyit1rEH/ZQ48ePexz2oDy/JwxY8YB9ymESCwHXSD/+usv984777h//vnH1alTx1WtWtX7ZB8XXnihO+GEE9zatWtNJHxGjBhhwlepUiVXuHBh21eiRAl3xRVXuOnTpx9wHihTpowJaN26dd2RRx7pChUq5MqWLev69u1rx/k8/vjjJsbBcxcrVszEkZeixwvi+Pzzz7uePXvadbk+cO6mTZu6KVOmHPBy+uLFi7tBgwbZ50cffbTt4yflBg4caH8LIZJDSrjYr732mvvll1/MIvrvf//r7d0H2eGiRYu6//u//3OrVq2yfYhZhw4dLCHCS93PO+88V758eRMSrDGW2Fx33XVWNkitWrVMjGbOnGnHdOrUya1fv96VLFnSNWjQwCvlLIaYmZnpJk2a5KpXr+6OPfZYd+ONN9rynV27dnml9jFt2jS7NmWw9BD8MO644w47Ny+Dnzx5stWB8w8bNswsQ87TpUsXr/Q+yIojrMQ0O3fubMd88MEHtp8JRQiRPFJCIBcvXmwZYKyloEAijtWqVXObN2928+bN8/Y6EzNEDVe5e/fuJh4I08iRI816xDKLJh6cp1+/fq5r1652DC7zypUrTWx86wxwfbEczz777Kz1jLi0LVq0cHfffbf9HQ9NmjRxRYoUcXPnznW333671QGBfvjhh816xIquWbNmNusXoV6yZIm7/vrr3ezZs+0Y2mLnzp1Z1q0QIjmkTJKGh3779u1m5SFMgFjiXhOve/31120fICCIWvPmzbPifv6G8OA+48JG8ttvv7kJEyZ4f+2jbdu2Zv0F45DDhw9369atc7Vr17bF36tXrzZrMjL+GCuIOhZotCVAX3zxhVmWCHUwtrhnzx43f/58E0YfrO29e/d6fwkhkkXKCOTUqVPNhT7xxBMt3gb169c3IXjrrbfsbx/EMZlwPa49dOhQS9RkZGTYEh5ioE8//bRXKj6wCHfs2OH9JYRIZVJGIP1kDW4jLjTu7H/+858DkjOwZs0a+0ksEesv2tawYUMrEy/UZ/DgwRYzrFKlilmeuMDUq127dl6p2MBCJAYajHf6YK0eddRR5t5/9tln3l4hxMEkZQQS/GTNmWee6S699FJzSYPJGZ9ly5aZO96yZUs3fvx4i1UmCs61cOFC99xzz7k2bdrYPsTy008/te9ZE0NEyOKBc2BBtmrVyo0aNcrim7jTZM1JzjA5fPTRRzkmeoQQBUdKCSTJmk8++cSVLl3alrEgSCQ0IkEUETHidSy7IXkRjEOy5pElQPHC9RFHRNI/J651uXLl7GuECJ0PaxX9MuPGjbOMM8Ln7yN26Av42LFjLRmFFUmiiPWSK1assOw3S5RY70kZIURqkFICCSRjcEUrVqzoPv/88wPijz5kdceMGZPwhAWZ8dGjR5twUQ/A6mPBOEuKOnbseIBFm1cQy27durk333zTbdu2zc7LxkRA9p1zB5MxQoiDS6GMjIxM7/eYwHKqV6+eu+uuu2wtoBBC5IdU1JSUsyCFECJVkEAKIUQIEkghhAgh7hikEEIc6siCFEKIECSQQggRggRSCCFCkEAKIUQIEkghhAhBAimEECFIIIUQIgQJpBBChCCBFEKIECSQQggRggRSCCFCkEAKIUQIEkghhAhBAimEECFIIIUQIgQJpBBChCCBFEKIECSQQggRggRSCCFCkEAKIUQIcQvkokWL3KZNm1z//v29PUKIQ53D7bmXBSmEECFIIIUQIgQJpBBChJGRkZGZl23FihWZubF79+7MIUOGZB0zefJk75PsrF+/PrN169bZzs/f7I8G5wmWZevevXvmtm3bvBL7iayDvy1YsMArkR3uK7Jsup471jZMZv+o7w+NvudauRFW/0NhkwUphBAhFEIlvd9jgmxWlSpV3MiRI93gwYO9vUKIQ5nD7bmXBSmEECFIIIUQIgQJpBBCRMW5/wfD5vVCwXNfIQAAAABJRU5ErkJggg==;" parent="WIyWlLk6GJQsqaUBKTNV-1" vertex="1">
          <mxGeometry x="990" y="210" width="218" height="157.52" as="geometry" />
        </mxCell>
        <mxCell id="VkJfk4KHNgsWcJ2oYwpS-5" value="" style="shape=image;verticalLabelPosition=bottom;labelBackgroundColor=default;verticalAlign=top;aspect=fixed;imageAspect=0;image=data:image/png,iVBORw0KGgoAAAANSUhEUgAAAR4AAAD1CAYAAACGPZojAAAAAXNSR0IArs4c6QAAAARnQU1BAACxjwv8YQUAAAAJcEhZcwAADsMAAA7DAcdvqGQAABmrSURBVHhe7d0JlM3l/wfwz9jF2JKdmCRbtmMXkWNX9pDINpI4snea/BzVZAgT4diP0RGyHYmKhChRtqKxJstYItugxnb///dnnu+4szLLfdw7vV/n3DNzn/vc7/3O5fue5/k83ztfP39/f5cQEVmUwXwlIrKGwUNE1jF4iMg6Bg8RWcfgISLrGDxEZB2Dh4is80jw7Ny5Uy5evChBQUGmhYi8gbccmxzxEJF1DB4iso7BQ0T24bNaqb2Fh4e7HiQqKsoVEhIS85ywsDDzSGwRERGu1q1bx9o+7qM9IdiOe1/cAgMDXZGRkabHfXH3wblt2rTJ9IgNP1fcvr667eS+h5789+G/vb1t4/6DJPYanrxxxENE1nnk0+monAcEBEhoaKgEBwebViJ61Lzl2OSIh4isY/AQkXUMHiKyjn+BkIis44iHiKxj8BCRdQweIrKOwUNE1jF4iMg6Bg8RWcfgISLrGDxEZB2Dh4isY/AQkXUMHiKyjsFDRNYxeIjIOgYPEVnH4CEi6xg8RGQdg4eIrGPwEJF1DB4iss4jwfPFF1/ImTNnpEuXLqaFiLyBtxybHPEQkXUMHktWrlwpV65ckR9++EHKli1rWu17/vnnZf/+/XLp0iWZOXOmaSWyi8FjAQ728uXLS4YMGaRUqVJSpUoV84h9zz33nBQqVEgyZcok1apVM61EdjF4LNiyZYv8/vvvcu/ePTl+/Ljs3bvXPGLftm3b5Ny5c3Lnzh3ZvXu3aSWyi8FjSfv27SVPnjxSr149OXjwoGm1DyFYsWJFyZcvn/Tv39+0EtnF4CEi67w+eFAfwQgBBdG+ffvK9u3btTB69epVOXHihISEhJiesQ0ZMkSfc/nyZbl27ZqcPXtW5s+fL0WLFjU9ogUFBcnFixd1mbFx48Y6InC2f+TIERk4cKD2c/Zj586dMmXKFPnrr79iCrTvvvuubh/3lyxZov0BS5ZYusTrOzc8PynYlvt+nz9/XtauXSv169c3Pe5D2+rVq/W10RfPOXTokG4jrmnTpsXaD9zQlpgaNWrI8uXLY7aN9wPTxI8++khy5sxpesV+X3r06KHTN+yH8+8zevRo05PoPp8Z8eTPn1+Cg4OlQoUKWhj18/OTvHnzSq9evWTo0KGmV7TJkydroJQoUUIyZsyobTly5JCOHTvK559/LqVLl9Y2d9g+gqlq1aox2y9YsKCMGDFCn+coXLiwdO7cWbJly6b9mjdvLm+88YZuH/fr1Kkj7dq1M72TZ+LEiTJs2LBY+509e3YNGLymOwTDjBkzpFGjRvragOdg/1599VUNhJRq0qSJLFy4UJo2bRqzbbwfjz/+uPTr108WLVoUK3ygZMmSGkp4b7Efzr8P+vfs2dP0IormM8Hz2GOP6X/oVatWScOGDaVVq1ZasMWB2aJFC9NLNCQ6dOighdylS5dKzZo1pUiRIjJmzBgdPZQtW1a6d+9uet+Huge2tWLFCn1O165dJSIiQnLnzi21a9c2vUTv37hxQwMJRVrUSvBab7/9to4IsJ/PPPOM9sXoB6+dK1cuPQCvX7+u7YlB/cflcsmCBQukXLly+rw+ffroEvy///5rekXD6AyrUxhV4OdFX+z31KlTdb/iwsgNfXBDqCRl0KBBOjLEaGfkyJH6M+A9X7dunf6seD8Q+O4QxJkzZ5Y1a9bofvTu3Vv3A6+HMCdy5zPBc/PmTR3JvPbaazqc37p1q45Q0F6sWDGpW7eu9sNBgXDAlCkwMFCnATjgQ0NDdbSD38SVK1fWvu7+/vtveeedd/SAwnMwvcG0BUvgOKgcOPA2bNggs2bN0vNyEBQbN27U0UdUVJRu3xmtJBemJ3gulrkRkLBs2TIN1uHDh+t9B/YXK1MYhWBkghEI9hvTLIQEfv6UwGthVIn3Fe8ZppJ4//CeY6r7888/a0DHXYq/deuWjoS6deum+4FpGp6TmveD0i+fCR7n5Dt3qMGg/oD/3PhtCxjqIyyaNWsWq56BG36TYzqEKVRcFy5ckLlz55p70dq2bau/sZ06D+CA3Lx5s7knOvr5+uuvzb3UmTRpkpw+fVoqVaqkJxweO3ZMRz8J1XfmzJmj9R2E4uuvvy5//PGHvj+obcWdBiUHQhvBgrpX3HoUAujw4cP6PQLPHfojbNyhjSghPhM8CcFBF/e3KULHV2EkVatWLRk/frwWmP39/XUZHgGT0FnGWA7v1KmTTm8iIyN1ujh27FjZsWOH1mlSA6MphDWRJ/h08GBahXNjUP9APQZOnjypX1GrcWoacW8oAHsrjCpQREe9JyAgQEdhCAFMgRIqWmOah+nNU089pSGFEUnx4sW1NpQSmC7evn1bR4UoXLvDSKpMmTI6vTx16pRpJUo+nwmerFmzau0BRU/cPvzwQ63HYMTz008/ydGjR7Xfvn37dPrTsmVLnY6kZnXHJuwnThX49NNPpU2bNtqGEPrll190mompJN4DB+pdmAqNGjUqph6E8D1w4IDWoVDkTgmMuhDeWM3CaiFGVQgcTPcWL16sq2moRblPN4mSy2eCBzUFnLMTHh6uN9RdMNrBytbHH39sekXXPnAAYxqGJWhMQ9zrPKg7YKndBpwb5Lzu7Nmz9QBGSDhtKMK6ByOWnxE6CB+nD6ZYWL3CihlCyJElSxbdFn4WBBD64itGRSj04j1wOOfaONvE+TaAr04b9hUQdqgrIVwQ8BMmTNBzkVBsx3Yw2sHqForeRCnlk1Mt/OfHSWpYLkeNAweVOxxQWGXCcu7du3dNq3fDKtT06dM1VDHdAfef8+WXX44Z1UFYWJieWoDH0Q/wPIx4sAI2btw4bUuJefPm6TawLWdf8D5iJPT+++/zoxaUan7+/v7R/2vTEH57Vq9eXYfq7mfypgR+y2LpGrB6k9JlYiJK22MzNXy6uExEvonBQ0TWMXiIyDqP1HiIiJLCEQ8RWcfgISLrGDxEZB2Dh4isY/AQkXUMHiKyjsFDRNYxeIjIOgYPEVnH4CEi6xg8RGQdg4eIrGPwEJF1DB4iso7BQ0TWMXiIyDoGDxFZx+AhIusYPERkHYOHiKzzSPDgUro2LxVMRA/HW45NjniIyDoGDxFZx+AhIvtwQb/U3sLDw10PEhUV5QoJCYl5TlhYmHkktoiICFfr1q1jbR/30Z4QbMe9L26BgYGuyMhI0+O+uPvg3DZt2mR6xIafK25fX912ct9DT/778N/e3rZx/0ESew1P3jjiISLrPHIJY1TOAwICJDQ0VIKDg00rET1q3nJscsRDRNYxeIjIOgYPEVnnkRoPEVFSOOIhIusYPERkHYOHiKxj8BCRdQweIrKOwUNE1jF4iMg6Bg8RWcfgISLrGDxEZB2Dh4isY/AQkXUMHiKyjsFDRNYxeIjIOgYPEVnH4CEi6xg8RGQdg4eIrPNI8HzxxRdy5swZ6dKli2khIm/gLccmRzxEZJ1PBc/zzz8v+/fvl0uXLsnMmTNN66OHffnxxx+lfv36psWOPn36yL59++Stt94yLUS+waeC57nnnpNChQpJpkyZpFq1aqb14eHyrRcvXpSgoCDTknqffPKJdOzYUXLnzi3ZsmUzrXYUKFBAnnjiCRk2bJiGEJGv8Kng2bZtm5w7d07u3Lkju3fvNq2PTv/+/aVTp05y4cIFHXVs2LDBPBIN8+lr167FumG0dvjwYRk3bpzkzJnT9BSdc2PujXB0V7ZsWR1NXb16VVavXh3rOdgGRltZs2aV4cOHS5MmTcwjRN7Np4Jny5YtUrFiRcmXL58e9I9SjRo15M0335QMGTLI4sWL44VOYjBaw6htwIABsmjRolhBkpCQkBCpUKGCHDhwQEaNGiXXr183j0R77733ZNOmTVKkSBEZNGiQaSXybiwup9Arr7wixYsXl71798rkyZNNa3y3bt2S8ePHS65cufTWvXt3DdB79+5JvXr1ZPDgwaZnfP/73/+kbt26OhIaM2aMHDx40DwS24wZM+Ts2bNSs2bNRx7IRA/DJ4Jn2rRp8aYsaEvKkCFD5LffftOpDfpfvnxZSpcubR5NHdSXMK35559/ZNmyZfFGIUnBdKlr165y7NgxyZIlixQuXNg8EhtqNoGBgRIVFSUTJ05MckSFIMN0LHv27NK2bVvTSuS90uWIB3WP0aNHy5NPPqlTG8iYMWPM96nVoEEDLeqeP39epznJ5RTIXS6X3L1717Teh7oOgge1mzlz5si8efPMI4nbuHGjBmDJkiV19Y/Im/lE8AwcODBmqrJw4ULTmjAUe1u2bKnff/nll9KwYUN93osvvqijjLRQqlQpXcH6888/5ejRo6b14WD/MFpDKKJgjIK5Oz8/P52aIXxWrVqlNZyHsWPHDi1y58mTR5555hnTSuSd0t2IB0GDpW2sDqEO46x+YTpy+/Zt/T61EBoIiNOnT5uWxGE6haKwM0XE6AV1G4x0MO3CVM1dsWLFtPYTERGhtZuHhQCMjIzUkRRGY0TeLN0FDwq+cOjQIf3qCVjJSinUhRCGGMUltAqFMNu+fbuUKFFCRzsPWvVyhzoWkS9IlzUe1E7SanSTWnFXtQoWLKijsiVLlpgesWHfp06dqitZqCVNmjTJPPJgKC4T+YJ0Fzw3b97UEcnjjz9uWqKhWJvYClJynTx5Ur9iWuQJWMHCShaKxe3atdNl9QfBih2mWAhcZ/+IvFW6Cx5MsXDwYbl75MiRUrRoUT2I33//fa39pAXUUzBlwgpSWi3Rx4VaEFa0AMvqD/pIRNWqVfXEShSsGTzk7bw+eLA0jBPnnOJsjx49tB1fnTZ8NMGBlSxMUzCteffddyU8PFz69euny+lYhUoLP/zwg37mC2cLt2nTxrSmPdR41q1bpz/Lgz4SgYI1+uHcJRTSibxZuhvx/Pzzz/L222/r56GwcoQbRigjRoxIs+DBa2zdulVXrJo1a5asAnBy4SMT+LgERm5jx47VZfa4EM4tWrTQUdj69etNK5H38vP393eZ79MMRiDVq1eXoUOHJlpE9XX4rNb8+fO1boRPqCMUHpWlS5dqAG7evJlnLlOSvOXYTJerWjZg1PPZZ5/pZ6769u37yP4sBQrPjRo10ullaGioaSXybgyeVMCfpcDZxZhqPYo/S4E/xYH6FT7PhWV31nbIVzB4Uun111/XqQ6KzVeuXDGtduBMZXwINjg4+KE+z0XkLTxS4yEiSgpHPERkHYOHiKxj8BCRdQweIrKOwUNE1jF4iMg6Bg8RWcfgISLrGDxEZB2Dh4isY/AQkXUMHiKyjsFDRNYxeIjIOo8ED/68Iv4iXpcuXUwLEXkDbzk2OeIhIusYPJasXLlS/0IhLo2T0JUiiP5LGDwW4PIz5cuX1yuclipVSqpUqWIeIfpvYvBYgD/C/vvvv+sVKY4fPy579+41jxD9NzF4LGnfvr3kyZNH6tWrp1dGJfovY/AQkXVeHTy4XhUuFXz16lW9amdcuJonLu/7119/ybBhw0xrtCFDhsj+/fvl8uXLen31s2fP6jZwKWB3QUFBemkaLDM2btxYp0W4ZAxe88iRIzJw4EDT8z5ck9192+fPn5e1a9dK/fr1TY9oWLLE0qVzjXfcdu7caR6NDz8vrtWF18XrO9tevXq1/qzunGVRXFcLj+M9QH98XbZsWbyfk8ibeHXwXL9+Xb777ju5c+eOVK5cWUqXLm0eidagQQN54okn5NSpU3rwOSZPnqyBUqJECcmYMaO25ciRQzp27Ciff/55vO1A/vz5NZiqVq0qmTJlEj8/PylYsKBecx3Pc0ycOFFDzn3b2bNn19Dp3Lmz3k8JhM6iRYtkwIAB+rp4fcC2caXQhQsXxrtg4GOPPSZjxozRx7Nly6Zt+Ip+o0eP1vtE3sjrp1pffvmlnDt3Tn+Dv/DCC6Y1GlaLsmTJIt9//70cPXpU2xASHTp00EIuLrRXs2ZNKVKkiB6gGD1gKbt79+7a113FihX1IF+xYoU+p2vXrhIRESG5c+eW2rVrm16iNRqXyyULFiyQcuXKSa5cufTyxVgm//fff02vaLg2NV4bfTAyQZAmZvDgwbptXBU0LCxM9wHbnzBhgo5ksJ2ePXua3tGwSobAQs2oW7du+pxt27ZpO4KayFt5ffDgGuVYEcJvd/fgQeiUKVNG/v77b1m/fr1pFQ0JhAWmTIGBgXpQ4oDHdcUx2sFIIqGDEtt55513pFevXvocTJ0OHTqkB7EzmgBMgTDSqVatWsz5OJjatGjRQi9jnFINGzaUzJkzy7p162TQoEG6Dwi+Dz74QEc7GPVVqFAh1mgNAbh7927p0aOHrFmzRp+D9+Kff/6JGY0ReSOfKC7jYLpx44aOSnDAA0II0yzUQ7766ittAxyYCItmzZrF1FWcGw5oTKMwlYnrwoULMnfuXHMvWtu2bXW04l7nwTXKT58+LZUqVdKTAo8dO6ajn7j1neRCWGLElNBS+6+//qojIQSge+3m9u3b8u2332rgODA6vHv3rrlH5J18IngWL16sU6kCBQpoPQNq1aqlB9iGDRv0vgOh40l4Pbz2+PHjtcDs7++vS+WoMc2cOdP0ShmMYG7evGnuEaVfPhE8TpEZ0wdMpTCtefrpp+MVleHkyZP6FbUajFYSutWpU0f7pBT2Jzg4WGsyAQEBOlLCVAj71a5dO9MreTCiQY3JvZ7kwOgqa9asOs3btWuXaSXyXT4RPOAUmZ999llp3ry5Tk3ci8qOffv26bSsZcuWMmfOHK0FpRVsa/v27fLpp59KmzZttA0h9Msvv+jnsFCjQUCkBLaBEU+rVq1kypQpWj/CtAqraCgqI3R//PHHJAvURL7CZ4IHReYdO3ZI3rx5dbkYBzoKsXEhbBAOqIdgeRtFV/c6D87ZwVJ7SuH1EToIH2ebmGIVKlRIPw6BAHHgXBunz+zZs3UFCoHitKE24wTjrFmztIiOUQ8K3DjfJzw8XFfDcCoAzldCH6L0wGeCB1BExpSkWLFismfPnnj1HQdWeWbMmJHmhVaslE2fPl0DAfsBGKXgREIs3b/88svxRmAPCyHUu3dv+eabbyQyMlK3ixsCFqtx2LZ7EZnIl/n5+/u7zPdpBr/pq1evLkOHDtVzWYjIO3jLselTIx4iSh8YPERkHYOHiKzzSI2HiCgpHPEQkXUMHiKyjsFDRNYxeIjIOgYPEVnH4CEi6xg8RGQdg4eIrGPwEJF1DB4iso7BQ0TWMXiIyDoGDxFZx+AhIus8Ejz484pnzpyRLl26mBYi8gbecmxyxENE1jF4iMg6Bg8RWcfgISLrGDxEZB2Dh4is8/rgwbXFceleXEsclybevXu3XjL46tWrcuLECRk9erTpeV+NGjUkLCxMH0c/XKf8/PnzsnHjRmncuLHpJTJt2jS9lvrEiRNl165d2hfXKG/fvr1s3bpV7x8+fDje0uOQIUNk//79uh/Y9tmzZ2X+/PlStGhR04OIkuIzI56SJUvKRx99JKVLl5aMGTOKn5+f5M2bV/r16yc9e/Y0vaIhjNq1a6ePox9kz55dAwkhU7ZsWW2DTJkyyUsvvSRPP/209kV4vPfee1KpUiW9X6hQIWnbtq3pLTJ58mQJCgqSEiVK6H5Ajhw5pGPHjnqNc+wfESXNZ4InW7ZskjlzZlmzZo3UrFlTevfuLefOnZNcuXJJ1apVTa9ot27d0pHRiBEjpFy5clKkSBEZN26cjk7wffPmzU3P/38DMmSQggULyurVq2Xx4sV6v3jx4rJ582aZNWuW3LlzR5588knti3Dp0KGD3Lt3T5YuXar7ge2NGTNGR1QItO7du2tfIkqczwQPwmTRokXSrVs3nXotX75cwwWjEmfk4UBANGzYUIMjIiJCrl+/rsGDMzbRFyMUd5gqzZ07V06ePKmvg+kX7l+5ckVDxtl+7dq1JXfu3LJlyxYJDAzU/cC2Q0NDdbSDfalcubL2JaLE+UzwIAwQNu7QlpD69evrCAah49R4cHOfYrlDHQdh4kCdByOruDCNwoioWbNmMdt0boMGDdJpG0ZPRJQ0nwmeh4ViNEY6jRo1En9//5gaT1pA6BBR6qW7I6lp06ZaEMYoZMKECVrjQR0IN0yNUgNTMVixYkXMNuPe6tSpo32IKHHpLnhy5sypNZmbN29q0GC61alTJ516YWUsNfbt2yc3btyQli1bypw5c3R0RUTJl+6CZ8+ePTrawagH59bg+3nz5unUCytjqYGw2b59u26nc+fOWgdyajy4oeaEpXYiSlq6C54FCxbIjBkzdHnb5XLpDatTq1at0hMIUwsnMWL7WMq/e/euaSWi5PDz9/d3me/TDP7YUPXq1WXo0KGyZMkS00pEj5q3HJtcpiEi6xg8RGQdg4eIrPNIjYeIKCkc8RCRdQweIrKOwUNE1jF4iMg6Bg8RWcfgISLrGDxEZB2Dh4isY/AQkXUMHiKyjsFDRNYxeIjIOgYPEVnH4CEi6xg8RGQdg4eIrGPwEJF1DB4iso7BQ0TWMXiIyDqPBM/OnTt5OV8iL+QtxyZHPERkHYOHiKxj8BCRfbigX2pv4eHhrgeJiopyhYSExDwnLCzMPBJbRESEq3Xr1rG2j/toTwi2494Xt8DAQFdkZKTpcV/cfXBumzZtMj1iw88Vt6+vbju576En/334b29v27j/IIm9hidvHPEQkXUeuYQxKucBAQESGhoqwcHBppWIHjVvOTY54iEi6xg8RGQdg4eIrPNIjYeIKCkc8RCRdQweIrKOwUNE1jF4iMg6Bg8RWcfgISLrGDxEZB2Dh4isY/AQkXUMHiKyTOT/AM5EO9QcZKheAAAAAElFTkSuQmCC;" parent="WIyWlLk6GJQsqaUBKTNV-1" vertex="1">
          <mxGeometry x="1380" y="220.32999999999998" width="186" height="159.34" as="geometry" />
        </mxCell>
        <mxCell id="VkJfk4KHNgsWcJ2oYwpS-7" value="fetched role according to &lt;br&gt;user_id,&lt;br&gt;tenant_id,service_id" style="text;html=1;align=center;verticalAlign=middle;resizable=0;points=[];autosize=1;strokeColor=none;fillColor=none;" parent="WIyWlLk6GJQsqaUBKTNV-1" vertex="1">
          <mxGeometry x="70" y="120" width="150" height="60" as="geometry" />
        </mxCell>
        <mxCell id="VkJfk4KHNgsWcJ2oYwpS-8" value="" style="endArrow=classic;html=1;rounded=0;entryX=0.971;entryY=-0.061;entryDx=0;entryDy=0;entryPerimeter=0;exitX=1;exitY=0.5;exitDx=0;exitDy=0;" parent="WIyWlLk6GJQsqaUBKTNV-1" source="VkJfk4KHNgsWcJ2oYwpS-2" target="VkJfk4KHNgsWcJ2oYwpS-14" edge="1">
          <mxGeometry width="50" height="50" relative="1" as="geometry">
            <mxPoint x="160" y="191" as="sourcePoint" />
            <mxPoint x="394.3969000000002" y="191.18000000000006" as="targetPoint" />
          </mxGeometry>
        </mxCell>
        <mxCell id="VkJfk4KHNgsWcJ2oYwpS-11" style="edgeStyle=orthogonalEdgeStyle;rounded=0;orthogonalLoop=1;jettySize=auto;html=1;exitX=0.5;exitY=1;exitDx=0;exitDy=0;" parent="WIyWlLk6GJQsqaUBKTNV-1" source="VkJfk4KHNgsWcJ2oYwpS-0" target="VkJfk4KHNgsWcJ2oYwpS-0" edge="1">
          <mxGeometry relative="1" as="geometry" />
        </mxCell>
        <mxCell id="VkJfk4KHNgsWcJ2oYwpS-13" value="" style="endArrow=classic;html=1;rounded=0;entryX=0.328;entryY=-0.005;entryDx=0;entryDy=0;entryPerimeter=0;" parent="WIyWlLk6GJQsqaUBKTNV-1" target="VkJfk4KHNgsWcJ2oYwpS-2" edge="1">
          <mxGeometry width="50" height="50" relative="1" as="geometry">
            <mxPoint x="71" y="70" as="sourcePoint" />
            <mxPoint x="120" y="50" as="targetPoint" />
          </mxGeometry>
        </mxCell>
        <mxCell id="VkJfk4KHNgsWcJ2oYwpS-14" value="Find the Role Groups Attached to Those&lt;br&gt;&amp;nbsp;Roles &lt;br&gt;for the Given Tenant" style="text;html=1;align=center;verticalAlign=middle;resizable=0;points=[];autosize=1;strokeColor=none;fillColor=none;" parent="WIyWlLk6GJQsqaUBKTNV-1" vertex="1">
          <mxGeometry x="154.78" y="280" width="240" height="60" as="geometry" />
        </mxCell>
        <mxCell id="VkJfk4KHNgsWcJ2oYwpS-18" value=": Find the Permissions for Those Role Groups" style="text;whiteSpace=wrap;html=1;" parent="WIyWlLk6GJQsqaUBKTNV-1" vertex="1">
          <mxGeometry x="640" y="280" width="280" height="40" as="geometry" />
        </mxCell>
        <mxCell id="VkJfk4KHNgsWcJ2oYwpS-28" value="" style="endArrow=classic;html=1;rounded=0;exitX=1;exitY=0.5;exitDx=0;exitDy=0;" parent="WIyWlLk6GJQsqaUBKTNV-1" source="VkJfk4KHNgsWcJ2oYwpS-3" edge="1">
          <mxGeometry width="50" height="50" relative="1" as="geometry">
            <mxPoint x="650" y="410" as="sourcePoint" />
            <mxPoint x="980" y="280" as="targetPoint" />
          </mxGeometry>
        </mxCell>
        <mxCell id="VkJfk4KHNgsWcJ2oYwpS-30" value="" style="endArrow=classic;html=1;rounded=0;entryX=0;entryY=0.437;entryDx=0;entryDy=0;entryPerimeter=0;" parent="WIyWlLk6GJQsqaUBKTNV-1" target="VkJfk4KHNgsWcJ2oYwpS-5" edge="1">
          <mxGeometry width="50" height="50" relative="1" as="geometry">
            <mxPoint x="1208" y="290" as="sourcePoint" />
            <mxPoint x="1258" y="240" as="targetPoint" />
          </mxGeometry>
        </mxCell>
        <mxCell id="VkJfk4KHNgsWcJ2oYwpS-31" value="permissons" style="text;html=1;align=center;verticalAlign=middle;resizable=0;points=[];autosize=1;strokeColor=none;fillColor=none;" parent="WIyWlLk6GJQsqaUBKTNV-1" vertex="1">
          <mxGeometry x="1250" y="265" width="80" height="30" as="geometry" />
        </mxCell>
      </root>
    </mxGraphModel>
  </diagram>
</mxfile>
